<?xml version="1.0" encoding="UTF-8" standalone="no"?>
<!DOCTYPE svg PUBLIC "-//W3C//DTD SVG 1.1//EN"
 "http://www.w3.org/Graphics/SVG/1.1/DTD/svg11.dtd">
<!-- Generated by graphviz version 2.40.1 (20161225.0304)
 -->
<!-- Title: dependencies Pages: 1 -->
<svg width="924pt" height="211pt"
 viewBox="0.00 0.00 924.00 211.00" xmlns="http://www.w3.org/2000/svg" xmlns:xlink="http://www.w3.org/1999/xlink">
<g id="graph0" class="graph" transform="scale(1 1) rotate(0) translate(4 207)">
<title>dependencies</title>
<polygon fill="#ffffff" stroke="transparent" points="-4,4 -4,-207 920,-207 920,4 -4,4"/>
<text text-anchor="start" x="437.0091" y="-42.4" font-family="sans-serif" font-weight="bold" font-size="14.00" fill="#000000">Legend</text>
<polygon fill="#ffffb3" stroke="transparent" points="224,-10 224,-30 244,-30 244,-10 224,-10"/>
<text text-anchor="start" x="247.629" y="-15.4" font-family="sans-serif" font-size="14.00" fill="#000000"> &#160;Declarations</text>
<polygon fill="#8dd3c7" stroke="transparent" points="337,-10 337,-30 357,-30 357,-10 337,-10"/>
<text text-anchor="start" x="360.7251" y="-15.4" font-family="sans-serif" font-size="14.00" fill="#000000"> &#160;Module</text>
<polygon fill="#80b1d3" stroke="transparent" points="423,-10 423,-30 443,-30 443,-10 423,-10"/>
<text text-anchor="start" x="446.7812" y="-15.4" font-family="sans-serif" font-size="14.00" fill="#000000"> &#160;Bootstrap</text>
<polygon fill="#fdb462" stroke="transparent" points="520,-10 520,-30 540,-30 540,-10 520,-10"/>
<text text-anchor="start" x="543.6732" y="-15.4" font-family="sans-serif" font-size="14.00" fill="#000000"> &#160;Providers</text>
<polygon fill="#fb8072" stroke="transparent" points="616,-10 616,-30 636,-30 636,-10 616,-10"/>
<text text-anchor="start" x="639.7258" y="-15.4" font-family="sans-serif" font-size="14.00" fill="#000000"> &#160;Exports</text>
<g id="clust1" class="cluster">
<title>cluster_SettingsModule</title>
<polygon fill="none" stroke="#000000" stroke-dasharray="1,5" points="8,-70 8,-195 908,-195 908,-70 8,-70"/>
</g>
<g id="clust2" class="cluster">
<title>cluster_SettingsModule_declarations</title>
<polygon fill="none" stroke="#000000" points="16,-78 16,-130 900,-130 900,-78 16,-78"/>
</g>
<!-- EditProfileComponent -->
<g id="node1" class="node">
<title>EditProfileComponent</title>
<polygon fill="#ffffb3" stroke="#000000" points="892.266,-122 749.734,-122 749.734,-86 892.266,-86 892.266,-122"/>
<text text-anchor="middle" x="821" y="-99.8" font-family="Times,serif" font-size="14.00" fill="#000000">EditProfileComponent</text>
</g>
<!-- SettingsModule -->
<g id="node7" class="node">
<title>SettingsModule</title>
<polygon fill="#8dd3c7" stroke="#000000" points="500.1639,-187 497.1639,-191 476.1639,-191 473.1639,-187 395.8361,-187 395.8361,-151 500.1639,-151 500.1639,-187"/>
<text text-anchor="middle" x="448" y="-164.8" font-family="Times,serif" font-size="14.00" fill="#000000">SettingsModule</text>
</g>
<!-- EditProfileComponent&#45;&gt;SettingsModule -->
<g id="edge1" class="edge">
<title>EditProfileComponent&#45;&gt;SettingsModule</title>
<path fill="none" stroke="#000000" d="M821,-122.2843C821,-143.3211 821,-175 821,-175 821,-175 510.2568,-175 510.2568,-175"/>
<polygon fill="#000000" stroke="#000000" points="510.2568,-171.5001 500.2568,-175 510.2568,-178.5001 510.2568,-171.5001"/>
</g>
<!-- LocalityComponent -->
<g id="node2" class="node">
<title>LocalityComponent</title>
<polygon fill="#ffffb3" stroke="#000000" points="731.986,-122 604.014,-122 604.014,-86 731.986,-86 731.986,-122"/>
<text text-anchor="middle" x="668" y="-99.8" font-family="Times,serif" font-size="14.00" fill="#000000">LocalityComponent</text>
</g>
<!-- LocalityComponent&#45;&gt;SettingsModule -->
<g id="edge2" class="edge">
<title>LocalityComponent&#45;&gt;SettingsModule</title>
<path fill="none" stroke="#000000" d="M668,-122.0225C668,-139.3734 668,-163 668,-163 668,-163 510.416,-163 510.416,-163"/>
<polygon fill="#000000" stroke="#000000" points="510.416,-159.5001 500.416,-163 510.4159,-166.5001 510.416,-159.5001"/>
</g>
<!-- LocationComponent -->
<g id="node3" class="node">
<title>LocationComponent</title>
<polygon fill="#ffffb3" stroke="#000000" points="585.5954,-122 454.4046,-122 454.4046,-86 585.5954,-86 585.5954,-122"/>
<text text-anchor="middle" x="520" y="-99.8" font-family="Times,serif" font-size="14.00" fill="#000000">LocationComponent</text>
</g>
<!-- LocationComponent&#45;&gt;SettingsModule -->
<g id="edge3" class="edge">
<title>LocationComponent&#45;&gt;SettingsModule</title>
<path fill="none" stroke="#000000" d="M477.392,-122.1061C477.392,-122.1061 477.392,-140.991 477.392,-140.991"/>
<polygon fill="#000000" stroke="#000000" points="473.8921,-140.9909 477.392,-150.991 480.8921,-140.991 473.8921,-140.9909"/>
</g>
<!-- ProjectComponent -->
<g id="node4" class="node">
<title>ProjectComponent</title>
<polygon fill="#ffffb3" stroke="#000000" points="436.486,-122 315.514,-122 315.514,-86 436.486,-86 436.486,-122"/>
<text text-anchor="middle" x="376" y="-99.8" font-family="Times,serif" font-size="14.00" fill="#000000">ProjectComponent</text>
</g>
<!-- ProjectComponent&#45;&gt;SettingsModule -->
<g id="edge4" class="edge">
<title>ProjectComponent&#45;&gt;SettingsModule</title>
<path fill="none" stroke="#000000" d="M416.0807,-122.1061C416.0807,-122.1061 416.0807,-140.991 416.0807,-140.991"/>
<polygon fill="#000000" stroke="#000000" points="412.5807,-140.9909 416.0807,-150.991 419.5807,-140.991 412.5807,-140.9909"/>
</g>
<!-- PropertyComponent -->
<g id="node5" class="node">
<title>PropertyComponent</title>
<polygon fill="#ffffb3" stroke="#000000" points="297.5422,-122 168.4578,-122 168.4578,-86 297.5422,-86 297.5422,-122"/>
<text text-anchor="middle" x="233" y="-99.8" font-family="Times,serif" font-size="14.00" fill="#000000">PropertyComponent</text>
</g>
<!-- PropertyComponent&#45;&gt;SettingsModule -->
<g id="edge5" class="edge">
<title>PropertyComponent&#45;&gt;SettingsModule</title>
<path fill="none" stroke="#000000" d="M233,-122.0225C233,-139.3734 233,-163 233,-163 233,-163 385.68,-163 385.68,-163"/>
<polygon fill="#000000" stroke="#000000" points="385.68,-166.5001 395.68,-163 385.68,-159.5001 385.68,-166.5001"/>
</g>
<!-- SettingsComponent -->
<g id="node6" class="node">
<title>SettingsComponent</title>
<polygon fill="#ffffb3" stroke="#000000" points="150.4468,-122 23.5532,-122 23.5532,-86 150.4468,-86 150.4468,-122"/>
<text text-anchor="middle" x="87" y="-99.8" font-family="Times,serif" font-size="14.00" fill="#000000">SettingsComponent</text>
</g>
<!-- SettingsComponent&#45;&gt;SettingsModule -->
<g id="edge6" class="edge">
<title>SettingsComponent&#45;&gt;SettingsModule</title>
<path fill="none" stroke="#000000" d="M87,-122.2843C87,-143.3211 87,-175 87,-175 87,-175 385.5075,-175 385.5075,-175"/>
<polygon fill="#000000" stroke="#000000" points="385.5075,-178.5001 395.5075,-175 385.5075,-171.5001 385.5075,-178.5001"/>
</g>
</g>
</svg>
