<?xml version="1.0" encoding="UTF-8" standalone="no"?>
<!DOCTYPE svg PUBLIC "-//W3C//DTD SVG 1.1//EN"
 "http://www.w3.org/Graphics/SVG/1.1/DTD/svg11.dtd">
<!-- Generated by graphviz version 2.40.1 (20161225.0304)
 -->
<!-- Title: dependencies Pages: 1 -->
<svg width="504pt" height="276pt"
 viewBox="0.00 0.00 504.00 276.00" xmlns="http://www.w3.org/2000/svg" xmlns:xlink="http://www.w3.org/1999/xlink">
<g id="graph0" class="graph" transform="scale(1 1) rotate(0) translate(4 272)">
<title>dependencies</title>
<polygon fill="#ffffff" stroke="transparent" points="-4,4 -4,-272 500,-272 500,4 -4,4"/>
<text text-anchor="start" x="227.0091" y="-42.4" font-family="sans-serif" font-weight="bold" font-size="14.00" fill="#000000">Legend</text>
<polygon fill="#ffffb3" stroke="transparent" points="14,-10 14,-30 34,-30 34,-10 14,-10"/>
<text text-anchor="start" x="37.629" y="-15.4" font-family="sans-serif" font-size="14.00" fill="#000000"> &#160;Declarations</text>
<polygon fill="#8dd3c7" stroke="transparent" points="127,-10 127,-30 147,-30 147,-10 127,-10"/>
<text text-anchor="start" x="150.7251" y="-15.4" font-family="sans-serif" font-size="14.00" fill="#000000"> &#160;Module</text>
<polygon fill="#80b1d3" stroke="transparent" points="213,-10 213,-30 233,-30 233,-10 213,-10"/>
<text text-anchor="start" x="236.7812" y="-15.4" font-family="sans-serif" font-size="14.00" fill="#000000"> &#160;Bootstrap</text>
<polygon fill="#fdb462" stroke="transparent" points="310,-10 310,-30 330,-30 330,-10 310,-10"/>
<text text-anchor="start" x="333.6732" y="-15.4" font-family="sans-serif" font-size="14.00" fill="#000000"> &#160;Providers</text>
<polygon fill="#fb8072" stroke="transparent" points="406,-10 406,-30 426,-30 426,-10 406,-10"/>
<text text-anchor="start" x="429.7258" y="-15.4" font-family="sans-serif" font-size="14.00" fill="#000000"> &#160;Exports</text>
<g id="clust1" class="cluster">
<title>cluster_UsersModule</title>
<polygon fill="none" stroke="#000000" stroke-dasharray="1,5" points="145,-70 145,-260 351,-260 351,-70 145,-70"/>
</g>
<g id="clust2" class="cluster">
<title>cluster_UsersModule_declarations</title>
<polygon fill="none" stroke="#000000" points="183,-143 183,-195 313,-195 313,-143 183,-143"/>
</g>
<g id="clust3" class="cluster">
<title>cluster_UsersModule_UsersComponent_providers</title>
<polygon fill="none" stroke="#000000" points="153,-78 153,-130 343,-130 343,-78 153,-78"/>
</g>
<!-- UsersComponent -->
<g id="node1" class="node">
<title>UsersComponent</title>
<polygon fill="#ffffb3" stroke="#000000" points="304.7036,-187 191.2964,-187 191.2964,-151 304.7036,-151 304.7036,-187"/>
<text text-anchor="middle" x="248" y="-164.8" font-family="Times,serif" font-size="14.00" fill="#000000">UsersComponent</text>
</g>
<!-- UsersModule -->
<g id="node2" class="node">
<title>UsersModule</title>
<polygon fill="#8dd3c7" stroke="#000000" points="293.9218,-252 290.9218,-256 269.9218,-256 266.9218,-252 202.0782,-252 202.0782,-216 293.9218,-216 293.9218,-252"/>
<text text-anchor="middle" x="248" y="-229.8" font-family="Times,serif" font-size="14.00" fill="#000000">UsersModule</text>
</g>
<!-- UsersComponent&#45;&gt;UsersModule -->
<g id="edge1" class="edge">
<title>UsersComponent&#45;&gt;UsersModule</title>
<path fill="none" stroke="#000000" d="M248,-187.1061C248,-187.1061 248,-205.991 248,-205.991"/>
<polygon fill="#000000" stroke="#000000" points="244.5001,-205.9909 248,-215.991 251.5001,-205.991 244.5001,-205.9909"/>
</g>
<!-- Users -->
<g id="node3" class="node">
<title>Users</title>
<ellipse fill="#fdb462" stroke="#000000" cx="302" cy="-104" rx="33.0411" ry="18"/>
<text text-anchor="middle" x="302" y="-99.8" font-family="Times,serif" font-size="14.00" fill="#000000">Users</text>
</g>
<!-- Users&#45;&gt;UsersComponent -->
<g id="edge2" class="edge">
<title>Users&#45;&gt;UsersComponent</title>
<path fill="none" stroke="#000000" d="M286.7906,-120.0674C286.7906,-120.0674 286.7906,-140.8237 286.7906,-140.8237"/>
<polygon fill="#000000" stroke="#000000" points="283.2907,-140.8236 286.7906,-150.8237 290.2907,-140.8237 283.2907,-140.8236"/>
</g>
<!-- Constant -->
<g id="node4" class="node">
<title>Constant</title>
<ellipse fill="#fdb462" stroke="#000000" cx="206" cy="-104" rx="45.2439" ry="18"/>
<text text-anchor="middle" x="206" y="-99.8" font-family="Times,serif" font-size="14.00" fill="#000000">Constant</text>
</g>
<!-- Constant&#45;&gt;UsersComponent -->
<g id="edge3" class="edge">
<title>Constant&#45;&gt;UsersComponent</title>
<path fill="none" stroke="#000000" d="M221.385,-121.078C221.385,-121.078 221.385,-140.8993 221.385,-140.8993"/>
<polygon fill="#000000" stroke="#000000" points="217.8851,-140.8992 221.385,-150.8993 224.8851,-140.8993 217.8851,-140.8992"/>
</g>
</g>
</svg>
