<?xml version="1.0" encoding="UTF-8" standalone="no"?>
<!DOCTYPE svg PUBLIC "-//W3C//DTD SVG 1.1//EN"
 "http://www.w3.org/Graphics/SVG/1.1/DTD/svg11.dtd">
<!-- Generated by graphviz version 2.40.1 (20161225.0304)
 -->
<!-- Title: dependencies Pages: 1 -->
<svg width="1709pt" height="211pt"
 viewBox="0.00 0.00 1709.00 211.00" xmlns="http://www.w3.org/2000/svg" xmlns:xlink="http://www.w3.org/1999/xlink">
<g id="graph0" class="graph" transform="scale(1 1) rotate(0) translate(4 207)">
<title>dependencies</title>
<polygon fill="#ffffff" stroke="transparent" points="-4,4 -4,-207 1705,-207 1705,4 -4,4"/>
<text text-anchor="start" x="829.5091" y="-42.4" font-family="sans-serif" font-weight="bold" font-size="14.00" fill="#000000">Legend</text>
<polygon fill="#ffffb3" stroke="transparent" points="616.5,-10 616.5,-30 636.5,-30 636.5,-10 616.5,-10"/>
<text text-anchor="start" x="640.129" y="-15.4" font-family="sans-serif" font-size="14.00" fill="#000000"> &#160;Declarations</text>
<polygon fill="#8dd3c7" stroke="transparent" points="729.5,-10 729.5,-30 749.5,-30 749.5,-10 729.5,-10"/>
<text text-anchor="start" x="753.2251" y="-15.4" font-family="sans-serif" font-size="14.00" fill="#000000"> &#160;Module</text>
<polygon fill="#80b1d3" stroke="transparent" points="815.5,-10 815.5,-30 835.5,-30 835.5,-10 815.5,-10"/>
<text text-anchor="start" x="839.2812" y="-15.4" font-family="sans-serif" font-size="14.00" fill="#000000"> &#160;Bootstrap</text>
<polygon fill="#fdb462" stroke="transparent" points="912.5,-10 912.5,-30 932.5,-30 932.5,-10 912.5,-10"/>
<text text-anchor="start" x="936.1732" y="-15.4" font-family="sans-serif" font-size="14.00" fill="#000000"> &#160;Providers</text>
<polygon fill="#fb8072" stroke="transparent" points="1008.5,-10 1008.5,-30 1028.5,-30 1028.5,-10 1008.5,-10"/>
<text text-anchor="start" x="1032.2258" y="-15.4" font-family="sans-serif" font-size="14.00" fill="#000000"> &#160;Exports</text>
<g id="clust1" class="cluster">
<title>cluster_LeadsModule</title>
<polygon fill="none" stroke="#000000" stroke-dasharray="1,5" points="8,-70 8,-195 1693,-195 1693,-70 8,-70"/>
</g>
<g id="clust2" class="cluster">
<title>cluster_LeadsModule_declarations</title>
<polygon fill="none" stroke="#000000" points="16,-78 16,-130 1685,-130 1685,-78 16,-78"/>
</g>
<!-- ChatComponent -->
<g id="node1" class="node">
<title>ChatComponent</title>
<polygon fill="#ffffb3" stroke="#000000" points="1676.7744,-122 1569.2256,-122 1569.2256,-86 1676.7744,-86 1676.7744,-122"/>
<text text-anchor="middle" x="1623" y="-99.8" font-family="Times,serif" font-size="14.00" fill="#000000">ChatComponent</text>
</g>
<!-- LeadsModule -->
<g id="node11" class="node">
<title>LeadsModule</title>
<polygon fill="#8dd3c7" stroke="#000000" points="932.4762,-187 929.4762,-191 908.4762,-191 905.4762,-187 839.5238,-187 839.5238,-151 932.4762,-151 932.4762,-187"/>
<text text-anchor="middle" x="886" y="-164.8" font-family="Times,serif" font-size="14.00" fill="#000000">LeadsModule</text>
</g>
<!-- ChatComponent&#45;&gt;LeadsModule -->
<g id="edge1" class="edge">
<title>ChatComponent&#45;&gt;LeadsModule</title>
<path fill="none" stroke="#000000" d="M1623,-122.0109C1623,-144.4852 1623,-180 1623,-180 1623,-180 942.6618,-180 942.6618,-180"/>
<polygon fill="#000000" stroke="#000000" points="942.6618,-176.5001 932.6618,-180 942.6617,-183.5001 942.6618,-176.5001"/>
</g>
<!-- CsrBuyerComponent -->
<g id="node2" class="node">
<title>CsrBuyerComponent</title>
<polygon fill="#ffffb3" stroke="#000000" points="1551.486,-122 1416.514,-122 1416.514,-86 1551.486,-86 1551.486,-122"/>
<text text-anchor="middle" x="1484" y="-99.8" font-family="Times,serif" font-size="14.00" fill="#000000">CsrBuyerComponent</text>
</g>
<!-- CsrBuyerComponent&#45;&gt;LeadsModule -->
<g id="edge2" class="edge">
<title>CsrBuyerComponent&#45;&gt;LeadsModule</title>
<path fill="none" stroke="#000000" d="M1484,-122.1289C1484,-142.5724 1484,-173 1484,-173 1484,-173 942.9241,-173 942.9241,-173"/>
<polygon fill="#000000" stroke="#000000" points="942.9241,-169.5001 932.9241,-173 942.924,-176.5001 942.9241,-169.5001"/>
</g>
<!-- CsrBuyerDetailComponent -->
<g id="node3" class="node">
<title>CsrBuyerDetailComponent</title>
<polygon fill="#ffffb3" stroke="#000000" points="1398.6937,-122 1229.3063,-122 1229.3063,-86 1398.6937,-86 1398.6937,-122"/>
<text text-anchor="middle" x="1314" y="-99.8" font-family="Times,serif" font-size="14.00" fill="#000000">CsrBuyerDetailComponent</text>
</g>
<!-- CsrBuyerDetailComponent&#45;&gt;LeadsModule -->
<g id="edge3" class="edge">
<title>CsrBuyerDetailComponent&#45;&gt;LeadsModule</title>
<path fill="none" stroke="#000000" d="M1314,-122.2667C1314,-140.5552 1314,-166 1314,-166 1314,-166 942.6183,-166 942.6183,-166"/>
<polygon fill="#000000" stroke="#000000" points="942.6183,-162.5001 932.6183,-166 942.6182,-169.5001 942.6183,-162.5001"/>
</g>
<!-- CsrCloserComponent -->
<g id="node4" class="node">
<title>CsrCloserComponent</title>
<polygon fill="#ffffb3" stroke="#000000" points="1211.8216,-122 1074.1784,-122 1074.1784,-86 1211.8216,-86 1211.8216,-122"/>
<text text-anchor="middle" x="1143" y="-99.8" font-family="Times,serif" font-size="14.00" fill="#000000">CsrCloserComponent</text>
</g>
<!-- CsrCloserComponent&#45;&gt;LeadsModule -->
<g id="edge4" class="edge">
<title>CsrCloserComponent&#45;&gt;LeadsModule</title>
<path fill="none" stroke="#000000" d="M1143,-122.0091C1143,-138.0494 1143,-159 1143,-159 1143,-159 942.5408,-159 942.5408,-159"/>
<polygon fill="#000000" stroke="#000000" points="942.5408,-155.5001 932.5408,-159 942.5407,-162.5001 942.5408,-155.5001"/>
</g>
<!-- CsrCloserDetailComponent -->
<g id="node5" class="node">
<title>CsrCloserDetailComponent</title>
<polygon fill="#ffffb3" stroke="#000000" points="1056.5294,-122 885.4706,-122 885.4706,-86 1056.5294,-86 1056.5294,-122"/>
<text text-anchor="middle" x="971" y="-99.8" font-family="Times,serif" font-size="14.00" fill="#000000">CsrCloserDetailComponent</text>
</g>
<!-- CsrCloserDetailComponent&#45;&gt;LeadsModule -->
<g id="edge5" class="edge">
<title>CsrCloserDetailComponent&#45;&gt;LeadsModule</title>
<path fill="none" stroke="#000000" d="M908.8619,-122.1061C908.8619,-122.1061 908.8619,-140.991 908.8619,-140.991"/>
<polygon fill="#000000" stroke="#000000" points="905.3619,-140.9909 908.8619,-150.991 912.3619,-140.991 905.3619,-140.9909"/>
</g>
<!-- CsrSellerComponent -->
<g id="node6" class="node">
<title>CsrSellerComponent</title>
<polygon fill="#ffffb3" stroke="#000000" points="867.9285,-122 734.0715,-122 734.0715,-86 867.9285,-86 867.9285,-122"/>
<text text-anchor="middle" x="801" y="-99.8" font-family="Times,serif" font-size="14.00" fill="#000000">CsrSellerComponent</text>
</g>
<!-- CsrSellerComponent&#45;&gt;LeadsModule -->
<g id="edge6" class="edge">
<title>CsrSellerComponent&#45;&gt;LeadsModule</title>
<path fill="none" stroke="#000000" d="M853.6129,-122.1061C853.6129,-122.1061 853.6129,-140.991 853.6129,-140.991"/>
<polygon fill="#000000" stroke="#000000" points="850.113,-140.9909 853.6129,-150.991 857.113,-140.991 850.113,-140.9909"/>
</g>
<!-- DataCollectorComponent -->
<g id="node7" class="node">
<title>DataCollectorComponent</title>
<polygon fill="#ffffb3" stroke="#000000" points="715.8571,-122 556.1429,-122 556.1429,-86 715.8571,-86 715.8571,-122"/>
<text text-anchor="middle" x="636" y="-99.8" font-family="Times,serif" font-size="14.00" fill="#000000">DataCollectorComponent</text>
</g>
<!-- DataCollectorComponent&#45;&gt;LeadsModule -->
<g id="edge7" class="edge">
<title>DataCollectorComponent&#45;&gt;LeadsModule</title>
<path fill="none" stroke="#000000" d="M636,-122.0091C636,-138.0494 636,-159 636,-159 636,-159 829.2702,-159 829.2702,-159"/>
<polygon fill="#000000" stroke="#000000" points="829.2702,-162.5001 839.2702,-159 829.2701,-155.5001 829.2702,-162.5001"/>
</g>
<!-- InhouseBrokerComponent -->
<g id="node8" class="node">
<title>InhouseBrokerComponent</title>
<polygon fill="#ffffb3" stroke="#000000" points="538.0253,-122 373.9747,-122 373.9747,-86 538.0253,-86 538.0253,-122"/>
<text text-anchor="middle" x="456" y="-99.8" font-family="Times,serif" font-size="14.00" fill="#000000">InhouseBrokerComponent</text>
</g>
<!-- InhouseBrokerComponent&#45;&gt;LeadsModule -->
<g id="edge8" class="edge">
<title>InhouseBrokerComponent&#45;&gt;LeadsModule</title>
<path fill="none" stroke="#000000" d="M456,-122.2667C456,-140.5552 456,-166 456,-166 456,-166 829.1639,-166 829.1639,-166"/>
<polygon fill="#000000" stroke="#000000" points="829.1639,-169.5001 839.1639,-166 829.1639,-162.5001 829.1639,-169.5001"/>
</g>
<!-- InhouseBrokerDetailComponent -->
<g id="node9" class="node">
<title>InhouseBrokerDetailComponent</title>
<polygon fill="#ffffb3" stroke="#000000" points="355.2324,-122 156.7676,-122 156.7676,-86 355.2324,-86 355.2324,-122"/>
<text text-anchor="middle" x="256" y="-99.8" font-family="Times,serif" font-size="14.00" fill="#000000">InhouseBrokerDetailComponent</text>
</g>
<!-- InhouseBrokerDetailComponent&#45;&gt;LeadsModule -->
<g id="edge9" class="edge">
<title>InhouseBrokerDetailComponent&#45;&gt;LeadsModule</title>
<path fill="none" stroke="#000000" d="M256,-122.1289C256,-142.5724 256,-173 256,-173 256,-173 829.4187,-173 829.4187,-173"/>
<polygon fill="#000000" stroke="#000000" points="829.4188,-176.5001 839.4187,-173 829.4187,-169.5001 829.4188,-176.5001"/>
</g>
<!-- LeadsComponent -->
<g id="node10" class="node">
<title>LeadsComponent</title>
<polygon fill="#ffffb3" stroke="#000000" points="138.2591,-122 23.7409,-122 23.7409,-86 138.2591,-86 138.2591,-122"/>
<text text-anchor="middle" x="81" y="-99.8" font-family="Times,serif" font-size="14.00" fill="#000000">LeadsComponent</text>
</g>
<!-- LeadsComponent&#45;&gt;LeadsModule -->
<g id="edge10" class="edge">
<title>LeadsComponent&#45;&gt;LeadsModule</title>
<path fill="none" stroke="#000000" d="M81,-122.0109C81,-144.4852 81,-180 81,-180 81,-180 829.2403,-180 829.2403,-180"/>
<polygon fill="#000000" stroke="#000000" points="829.2403,-183.5001 839.2403,-180 829.2403,-176.5001 829.2403,-183.5001"/>
</g>
</g>
</svg>
