<?xml version="1.0" encoding="UTF-8"?>
<svg width="24px" height="24px" viewBox="0 0 24 24" version="1.1" xmlns="http://www.w3.org/2000/svg" xmlns:xlink="http://www.w3.org/1999/xlink">
    <!-- Generator: Sketch 63.1 (92452) - https://sketch.com -->
    <title>ic_commission</title>
    <desc>Created with Sketch.</desc>
    <g id="Pages" stroke="none" stroke-width="1" fill="none" fill-rule="evenodd">
        <g id="save-money" transform="translate(3.000000, 1.000000)" fill="#434B52" fill-rule="nonzero">
            <path d="M4.84782175,10.3241525 C4.84782175,12.9243081 6.95565745,15.0321438 9.55581303,15.0321438 C12.1559686,15.0321438 14.2638043,12.9243081 14.2638043,10.3241525 C14.2638043,7.72399697 12.1559686,5.61616131 9.55581303,5.61616131 C6.95693192,5.61907444 4.85073488,7.72527147 4.84782175,10.3241525 Z M9.55581303,10.6216565 C8.77454647,10.6260262 8.1125364,10.0474047 8.01257945,9.27251059 C7.9126225,8.49779858 8.40603481,7.76987885 9.16290389,7.57597323 L9.16290389,7.1779661 C9.16290389,6.99771581 9.30892479,6.85169492 9.48917508,6.85169492 C9.66942532,6.85169492 9.81544626,6.99771581 9.81544626,7.1779661 L9.81544626,7.5561275 C10.5557468,7.68139233 11.0961335,8.32501324 11.0914305,9.076056 C11.0914305,9.25412144 10.9470173,9.39850371 10.7689519,9.39850371 C10.5908865,9.39850371 10.4465042,9.25412144 10.4465042,9.076056 C10.445958,8.58318991 10.0461302,8.18409033 9.55326406,8.18463651 C9.06039792,8.18518273 8.66129834,8.58519265 8.66202663,9.07805879 C8.66257281,9.57074287 9.06258277,9.96984245 9.55544886,9.96911412 C10.3545584,9.97366593 11.0182071,10.586881 11.0857554,11.3832594 C11.1533037,12.1794558 10.602357,12.895723 9.81544626,13.0348252 L9.81544626,13.4237288 C9.81544626,13.6039791 9.66942532,13.75 9.48917508,13.75 C9.30892479,13.75 9.16290389,13.6039791 9.16290389,13.4237288 L9.16290389,13.0147974 C8.48104806,12.8347292 8.00456833,12.2200576 8.00001656,11.5148967 C8.00001656,11.3326437 8.14785819,11.1848021 8.33011123,11.1848021 C8.51236426,11.1848021 8.66020589,11.3326437 8.66020589,11.5148967 C8.66129834,11.9706204 9.00468418,12.3527874 9.45767676,12.4024927 C9.47442729,12.3997617 9.49154199,12.3984871 9.50865664,12.3983051 C9.53323623,12.3983051 9.55763376,12.4012182 9.58166708,12.4066804 C10.0710739,12.3946637 10.4594313,11.9908302 10.4523305,11.5014234 C10.4452297,11.0118346 10.0452198,10.6194717 9.55581303,10.6216565 L9.55581303,10.6216565 Z" id="Shape"></path>
            <path d="M17.1115764,17.2768969 C17.1092095,17.2781713 17.1066605,17.2794458 17.1039294,17.2807203 L14.0751787,18.7116161 C14.1077695,18.8793035 14.121971,19.049904 14.1174192,19.2206866 C14.1126854,19.3972954 13.9681211,19.5380363 13.7915122,19.5380363 C13.788417,19.5380363 13.7853217,19.5380363 13.7822266,19.5380363 L9.34952663,19.4160487 C9.16927634,19.4111328 9.02726098,19.2611063 9.03217691,19.0808561 C9.03709283,18.9006058 9.18730138,18.7585904 9.36736956,18.7635064 L13.4419359,18.8756621 C13.3068393,18.0860203 12.6335408,17.5012083 11.8327927,17.4779032 L9.1363215,17.4038003 C8.60376392,17.3885064 8.08158436,17.2535918 7.60838189,17.0090704 L7.33400092,16.8670551 C5.98649364,16.1649894 4.36278467,16.2563891 3.10267147,17.105386 L2.99470339,21.0281052 L3.45807401,20.7799424 C3.91853149,20.5323259 4.45727952,20.4733349 4.96052369,20.6155323 L9.53669559,21.900043 C10.4186474,22.0806575 11.3351927,21.9783335 12.1556045,21.6072729 L18.4954979,17.5063063 C18.1337228,17.1359739 17.5734905,17.0429357 17.1115764,17.2768969 L17.1115764,17.2768969 Z" id="Path"></path>
            <polygon id="Path" points="0.0167505297 21.7094147 0.177519212 15.8731296 2.48217358 15.9366724 2.32140495 21.7729575"></polygon>
            <path d="M9.86205643,3.86864407 L9.86205643,0.326271186 C9.86205643,0.146020898 9.71603549,0 9.53578525,0 C9.35553496,0 9.20951406,0.146020898 9.20951406,0.326271186 L9.20951406,3.86864407 C9.20951406,4.04889436 9.35553496,4.19491525 9.53578525,4.19491525 C9.71603549,4.19491525 9.86205643,4.04889436 9.86205643,3.86864407 Z" id="Path"></path>
            <path d="M12.6586666,3.86864407 L12.6586666,2.19067797 C12.6586666,2.01042768 12.5126457,1.86440678 12.3323954,1.86440678 C12.1521451,1.86440678 12.0061242,2.01042768 12.0061242,2.19067797 L12.0061242,3.86864407 C12.0061242,4.04889436 12.1521451,4.19491525 12.3323954,4.19491525 C12.5126457,4.19491525 12.6586666,4.04889436 12.6586666,3.86864407 Z" id="Path"></path>
            <path d="M7.06544626,3.86864407 L7.06544626,2.19067797 C7.06544626,2.01042768 6.91942532,1.86440678 6.73917508,1.86440678 C6.55892479,1.86440678 6.41290389,2.01042768 6.41290389,2.19067797 L6.41290389,3.86864407 C6.41290389,4.04889436 6.55892479,4.19491525 6.73917508,4.19491525 C6.91942532,4.19491525 7.06544626,4.04889436 7.06544626,3.86864407 Z" id="Path"></path>
        </g>
    </g>
</svg>