<?xml version="1.0" encoding="UTF-8"?>
<svg width="24px" height="24px" viewBox="0 0 24 24" version="1.1" xmlns="http://www.w3.org/2000/svg" xmlns:xlink="http://www.w3.org/1999/xlink">
    <!-- Generator: Sketch 63.1 (92452) - https://sketch.com -->
    <title>ic_folder</title>
    <desc>Created with Sketch.</desc>
    <g id="Page-1" stroke="none" stroke-width="1" fill="none" fill-rule="evenodd">
        <g id="660091" transform="translate(1.000000, 3.000000)" fill="#434B52" fill-rule="nonzero">
            <path d="M21.8268456,6.6584111 C21.6544972,6.42404271 21.3776913,6.28577041 21.08344,6.28577041 L20.1667837,6.28577041 L20.1667837,3.59188083 C20.1667837,3.09532122 19.7561295,2.69393167 19.2501273,2.69393167 L11.3795499,2.69393167 L8.89813664,0.263117246 C8.72673355,0.0942861352 8.49298252,0 8.25003615,0 L0.91665636,0 C0.410654143,0 0,0.401389547 0,0.897949162 L0,17.9592358 C0,17.9727052 0.0064023718,17.9843647 0.00734768844,17.9978342 C0.0110000482,18.0813448 0.0247501084,18.1630454 0.0522502289,18.2420942 C0.0568479053,18.2555636 0.0586526007,18.269917 0.0632502771,18.2833865 C0.0916527453,18.3534276 0.127402902,18.4216588 0.173250759,18.4845443 C0.182403143,18.4971298 0.195250855,18.5060954 0.204403239,18.5177549 C0.219055647,18.5357282 0.23555572,18.5509655 0.251153444,18.5680548 C0.305251337,18.6246265 0.365751603,18.6740005 0.431751892,18.7144088 C0.447349616,18.7243004 0.461099677,18.7359599 0.477599749,18.7449255 C0.561002458,18.7889117 0.650850508,18.8194705 0.744350918,18.8374017 C0.753503301,18.8382856 0.76085099,18.8445994 0.770003374,18.8454834 C0.818601243,18.853565 0.867156143,18.8571429 0.915754012,18.8571429 L0.91665636,18.8571429 L17.4167287,18.8571429 C17.811828,18.8571429 18.1619819,18.6101889 18.2866348,18.242936 L21.9533032,7.46737772 C22.0459443,7.19449513 21.999194,6.8927795 21.8268456,6.6584111 Z M18.333428,6.28572832 L4.58336774,6.28572832 C4.18826835,6.28572832 3.83901682,6.53268222 3.71346158,6.89993514 L1.83335569,12.4251027 L1.83335569,1.79594042 L7.87053449,1.79594042 L10.3519477,4.22671275 C10.5242961,4.39554386 10.7571018,4.48982999 11.0000482,4.48982999 L18.333428,4.48982999 L18.333428,6.28572832 Z" id="Shape"></path>
        </g>
    </g>
</svg>