<?xml version="1.0" encoding="UTF-8"?>
<svg width="24px" height="24px" viewBox="0 0 24 24" version="1.1" xmlns="http://www.w3.org/2000/svg" xmlns:xlink="http://www.w3.org/1999/xlink">
    <!-- Generator: Sketch 63.1 (92452) - https://sketch.com -->
    <title>ic_payment</title>
    <desc>Created with Sketch.</desc>
    <g id="Pages" stroke="none" stroke-width="1" fill="none" fill-rule="evenodd">
        <g id="money" transform="translate(1.000000, 1.000000)" fill-rule="nonzero">
            <g id="XMLID_2961_">
                <path d="M9.77281947,21.9590791 C3.94478296,20.0619026 0,14.6292414 0,8.50016633 L0,3.322357 L9.79517647,0.00370385396 L19.5456389,3.322357 L19.5456389,8.50016633 C19.5456389,14.6292414 15.600856,20.0619026 9.77281947,21.9590791 Z" id="XMLID_2966_" fill="#434B52"></path>
                <g id="XMLID_2962_" transform="translate(2.498986, 2.543611)" fill="#F9F9F9">
                    <g id="XMLID_2482_">
                        <path d="M0,2.79864097 L0,5.95655578 C0,10.7422921 2.89070183,14.9844544 7.27383367,16.7572617 C11.6569655,14.9844097 14.5476673,10.7422921 14.5476673,5.95655578 L14.5476673,2.79667748 L7.2949858,0.016198783 L0,2.79864097 Z" id="XMLID_2484_"></path>
                    </g>
                </g>
            </g>
            <circle id="XMLID_1984_" stroke="#FFFFFF" stroke-width="0.5" fill="#434B52" cx="17.6342272" cy="4.33230426" r="4.32860041"></circle>
            <g id="XMLID_390_" transform="translate(7.630832, 3.123732)">
                <path d="M2.14765517,4.80813793 C2.82800406,4.80813793 3.38148479,5.29195943 3.38148479,5.8866288 C3.38148479,6.13304665 3.58126978,6.33287627 3.82773225,6.33287627 C4.07419473,6.33287627 4.27397972,6.13304665 4.27397972,5.8866288 C4.27397972,4.9416998 3.55279919,4.15027992 2.59390264,3.95968763 L2.59390264,3.64062069 C2.59390264,3.39420284 2.39411765,3.19437323 2.14765517,3.19437323 C1.9011927,3.19437323 1.70140771,3.39420284 1.70140771,3.64062069 L1.70140771,3.95968763 C0.742511156,4.15032454 0.0213306288,4.9416998 0.0213306288,5.8866288 C0.0213306288,6.97341988 0.975184584,7.85765923 2.14765517,7.85765923 C2.82800406,7.85765923 3.38148479,8.34148073 3.38148479,8.93619473 C3.38148479,9.5308641 2.82800406,10.0146856 2.14765517,10.0146856 C1.46730629,10.0146856 0.913825558,9.5308641 0.913825558,8.93619473 C0.913825558,8.68977688 0.714040568,8.48994726 0.467578093,8.48994726 C0.221115619,8.48994726 0.0213306288,8.68977688 0.0213306288,8.93619473 C0.0213306288,9.88112373 0.742555781,10.6725436 1.70140771,10.8631359 L1.70140771,11.1822028 C1.70140771,11.4286207 1.9011927,11.6284503 2.14765517,11.6284503 C2.39411765,11.6284503 2.59390264,11.4286207 2.59390264,11.1822028 L2.59390264,10.8631359 C3.55279919,10.6725436 4.27397972,9.88112373 4.27397972,8.93619473 C4.27397972,7.84940365 3.32012576,6.9651643 2.14765517,6.9651643 C1.46730629,6.9651643 0.913825558,6.4813428 0.913825558,5.8866288 C0.913825558,5.29195943 1.46730629,4.80813793 2.14765517,4.80813793 L2.14765517,4.80813793 Z" id="XMLID_391_" fill="#434B52"></path>
                <path d="M10.9596146,0.134409736 L9.75791481,1.33610953 L9.37436511,0.952515213 C9.20006085,0.778344828 8.91754158,0.778300203 8.74328195,0.952515213 C8.56902231,1.12677485 8.56897769,1.40933874 8.74328195,1.583643 L9.44241785,2.2827789 C9.52608925,2.3664503 9.6396146,2.41348479 9.75795943,2.41348479 C9.87630426,2.41348479 9.98982961,2.3664503 10.073501,2.2827789 L11.5907424,0.765537525 C11.765002,0.59127789 11.765002,0.308713996 11.5907424,0.134409736 C11.4164828,-0.0398052738 11.1338742,-0.0398052738 10.9596146,0.134409736 Z" id="XMLID_666_" fill="#FFFFFF"></path>
            </g>
        </g>
    </g>
</svg>