<?xml version="1.0" encoding="UTF-8"?>
<svg width="24px" height="24px" viewBox="0 0 24 24" version="1.1" xmlns="http://www.w3.org/2000/svg" xmlns:xlink="http://www.w3.org/1999/xlink">
    <!-- Generator: Sketch 63.1 (92452) - https://sketch.com -->
    <title>ic_reports</title>
    <desc>Created with Sketch.</desc>
    <g id="Pages" stroke="none" stroke-width="1" fill="none" fill-rule="evenodd">
        <g id="invoice-(2)" transform="translate(4.000000, 1.000000)" fill="#434B52" fill-rule="nonzero">
            <path d="M16.3651641,4.71706641 L11.7829336,0.134835938 C11.6999609,0.0516054688 11.5852773,0 11.4583477,0 L1.83334766,0 C0.822679688,0 0,0.822207031 0,1.83334766 L0,20.1666953 C0,21.177793 0.822679688,22 1.83334766,22 L14.6666953,22 C15.6773203,22 16.5,21.177793 16.5,20.1666523 L16.5,5.04165234 C16.5,4.91472266 16.4483945,4.80003906 16.3651641,4.71706641 Z M4.125,6.41665234 C3.36677344,6.41665234 2.75,5.79987891 2.75,5.04165234 C2.75,4.44490234 3.1343125,3.94092187 3.66665234,3.75108594 L3.66665234,3.66665234 C3.66665234,3.41330859 3.87165625,3.20830469 4.125,3.20830469 C4.37834375,3.20830469 4.58334766,3.41330859 4.58334766,3.66665234 L5.04169531,3.66665234 C5.29499609,3.66665234 5.5,3.87165625 5.5,4.125 C5.5,4.37834375 5.29499609,4.58334766 5.04165234,4.58334766 L4.125,4.58334766 C3.87255859,4.58334766 3.66665234,4.78878125 3.66665234,5.04169531 C3.66665234,5.29456641 3.87255859,5.50004297 4.125,5.50004297 C4.88322656,5.50004297 5.5,6.11681641 5.5,6.87504297 C5.5,7.47179297 5.1156875,7.97577344 4.58334766,8.16560937 L4.58334766,8.25 C4.58334766,8.50334375 4.37834375,8.70834766 4.125,8.70834766 C3.87165625,8.70834766 3.66665234,8.50334375 3.66665234,8.25 L3.20830469,8.25 C2.95496094,8.25 2.74995703,8.04499609 2.74995703,7.79165234 C2.74995703,7.53830859 2.95496094,7.33330469 3.20830469,7.33330469 L4.125,7.33330469 C4.37744141,7.33330469 4.58334766,7.12787109 4.58334766,6.87495703 C4.58334766,6.62204297 4.37744141,6.41665234 4.125,6.41665234 Z M8.70834766,19.25 L3.20834766,19.25 C2.95500391,19.25 2.75,19.0449961 2.75,18.7916523 C2.75,18.5383086 2.95500391,18.3333047 3.20834766,18.3333047 L8.70834766,18.3333047 C8.96169141,18.3333047 9.16669531,18.5383086 9.16669531,18.7916523 C9.16669531,19.0449961 8.96169141,19.25 8.70834766,19.25 Z M13.2916523,16.5 L3.20834766,16.5 C2.95500391,16.5 2.75,16.2949961 2.75,16.0416523 C2.75,15.7883086 2.95500391,15.5833047 3.20834766,15.5833047 L13.2916953,15.5833047 C13.5450391,15.5833047 13.750043,15.7883086 13.750043,16.0416523 C13.750043,16.2949961 13.5449961,16.5 13.2916523,16.5 Z M13.2916523,13.75 L3.20834766,13.75 C2.95500391,13.75 2.75,13.5449961 2.75,13.2916523 C2.75,13.0383086 2.95500391,12.8333047 3.20834766,12.8333047 L13.2916953,12.8333047 C13.5450391,12.8333047 13.750043,13.0383086 13.750043,13.2916523 C13.750043,13.5449961 13.5449961,13.75 13.2916523,13.75 Z M13.2916523,11 L3.20834766,11 C2.95500391,11 2.75,10.7949961 2.75,10.5416523 C2.75,10.2883086 2.95500391,10.0833047 3.20834766,10.0833047 L13.2916953,10.0833047 C13.5450391,10.0833047 13.750043,10.2883086 13.750043,10.5416523 C13.750043,10.7949961 13.5449961,11 13.2916523,11 Z M13.2916523,8.25 L7.79165234,8.25 C7.53830859,8.25 7.33330469,8.04499609 7.33330469,7.79165234 C7.33330469,7.53830859 7.53830859,7.33330469 7.79165234,7.33330469 L13.2916523,7.33330469 C13.5449961,7.33330469 13.75,7.53830859 13.75,7.79165234 C13.75,8.04499609 13.5449961,8.25 13.2916523,8.25 Z M12.8333477,4.58334766 C12.3275625,4.58334766 11.9166953,4.17200781 11.9166953,3.66669531 L11.9166953,1.56479297 L14.93525,4.58334766 L12.8333477,4.58334766 Z" id="Shape"></path>
        </g>
    </g>
</svg>