<?xml version="1.0" encoding="utf-8"?>
<!-- Generator: Adobe Illustrator 23.0.0, SVG Export Plug-In . SVG Version: 6.00 Build 0)  -->
<svg version="1.1" id="Layer_1" xmlns="http://www.w3.org/2000/svg" xmlns:xlink="http://www.w3.org/1999/xlink" x="0px" y="0px"
	 viewBox="0 0 676 704" style="enable-background:new 0 0 676 704;" xml:space="preserve">
<style type="text/css">
	.st0{opacity:0.1429;}
	.st1{opacity:0.2857;}
	.st2{opacity:0.4286;}
	.st3{opacity:0.5714;}
	.st4{opacity:0.7143;}
	.st5{opacity:0.8571;}
</style>
<g>
	<g class="st0">
		<ellipse transform="matrix(0.4882 -0.8727 0.8727 0.4882 45.5462 552.6417)" cx="493.98" cy="237.49" rx="49" ry="49"/>
	</g>
	<g class="st1">
		<ellipse transform="matrix(0.1329 -0.9911 0.9911 0.1329 59.0653 880.0455)" cx="532.5" cy="406.27" rx="49" ry="49"/>
	</g>
	<g class="st2">
		<ellipse transform="matrix(0.0547 -0.9985 0.9985 0.0547 -139.4644 935.9199)" cx="424.56" cy="541.62" rx="49" ry="49"/>
	</g>
	<g class="st3">
		<ellipse transform="matrix(0.4674 -0.884 0.884 0.4674 -344.8961 510.7444)" cx="251.44" cy="541.62" rx="49" ry="49"/>
	</g>
	<g class="st4">
		<ellipse transform="matrix(0.9373 -0.3485 0.3485 0.9373 -132.5711 75.4662)" cx="143.5" cy="406.27" rx="49" ry="49"/>
	</g>
	<g class="st5">
		<ellipse transform="matrix(0.7071 -0.7071 0.7071 0.7071 -114.6145 198.269)" cx="182.02" cy="237.49" rx="49" ry="49"/>
	</g>
	<circle cx="338" cy="162.37" r="49"/>
</g>
</svg>
