<?xml version="1.0" encoding="UTF-8" standalone="no"?>
<!DOCTYPE svg PUBLIC "-//W3C//DTD SVG 1.1//EN"
 "http://www.w3.org/Graphics/SVG/1.1/DTD/svg11.dtd">
<!-- Generated by graphviz version 2.40.1 (20161225.0304)
 -->
<!-- Title: dependencies Pages: 1 -->
<svg width="1407pt" height="284pt"
 viewBox="0.00 0.00 1407.00 284.00" xmlns="http://www.w3.org/2000/svg" xmlns:xlink="http://www.w3.org/1999/xlink">
<g id="graph0" class="graph" transform="scale(1 1) rotate(0) translate(4 280)">
<title>dependencies</title>
<polygon fill="#ffffff" stroke="transparent" points="-4,4 -4,-280 1403,-280 1403,4 -4,4"/>
<text text-anchor="start" x="678.5091" y="-42.4" font-family="sans-serif" font-weight="bold" font-size="14.00" fill="#000000">Legend</text>
<polygon fill="#ffffb3" stroke="transparent" points="465.5,-10 465.5,-30 485.5,-30 485.5,-10 465.5,-10"/>
<text text-anchor="start" x="489.129" y="-15.4" font-family="sans-serif" font-size="14.00" fill="#000000"> &#160;Declarations</text>
<polygon fill="#8dd3c7" stroke="transparent" points="578.5,-10 578.5,-30 598.5,-30 598.5,-10 578.5,-10"/>
<text text-anchor="start" x="602.2251" y="-15.4" font-family="sans-serif" font-size="14.00" fill="#000000"> &#160;Module</text>
<polygon fill="#80b1d3" stroke="transparent" points="664.5,-10 664.5,-30 684.5,-30 684.5,-10 664.5,-10"/>
<text text-anchor="start" x="688.2812" y="-15.4" font-family="sans-serif" font-size="14.00" fill="#000000"> &#160;Bootstrap</text>
<polygon fill="#fdb462" stroke="transparent" points="761.5,-10 761.5,-30 781.5,-30 781.5,-10 761.5,-10"/>
<text text-anchor="start" x="785.1732" y="-15.4" font-family="sans-serif" font-size="14.00" fill="#000000"> &#160;Providers</text>
<polygon fill="#fb8072" stroke="transparent" points="857.5,-10 857.5,-30 877.5,-30 877.5,-10 857.5,-10"/>
<text text-anchor="start" x="881.2258" y="-15.4" font-family="sans-serif" font-size="14.00" fill="#000000"> &#160;Exports</text>
<g id="clust1" class="cluster">
<title>cluster_AppModule</title>
<polygon fill="none" stroke="#000000" stroke-dasharray="1,5" points="8,-70 8,-268 1391,-268 1391,-70 8,-70"/>
</g>
<g id="clust2" class="cluster">
<title>cluster_AppModule_declarations</title>
<polygon fill="none" stroke="#000000" points="754,-78 754,-130 1383,-130 1383,-78 754,-78"/>
</g>
<g id="clust7" class="cluster">
<title>cluster_AppModule_imports</title>
<polygon fill="none" stroke="#000000" points="630,-78 630,-130 746,-130 746,-78 630,-78"/>
</g>
<g id="clust9" class="cluster">
<title>cluster_AppModule_bootstrap</title>
<polygon fill="none" stroke="#000000" points="626,-208 626,-260 750,-260 750,-208 626,-208"/>
</g>
<g id="clust10" class="cluster">
<title>cluster_AppModule_providers</title>
<polygon fill="none" stroke="#000000" points="16,-78 16,-130 622,-130 622,-78 16,-78"/>
</g>
<!-- AppComponent -->
<g id="node1" class="node">
<title>AppComponent</title>
<polygon fill="#ffffb3" stroke="#000000" points="1374.9399,-122 1269.0601,-122 1269.0601,-86 1374.9399,-86 1374.9399,-122"/>
<text text-anchor="middle" x="1322" y="-99.8" font-family="Times,serif" font-size="14.00" fill="#000000">AppComponent</text>
</g>
<!-- AppModule -->
<g id="node5" class="node">
<title>AppModule</title>
<polygon fill="#8dd3c7" stroke="#000000" points="729.6571,-187 726.6571,-191 705.6571,-191 702.6571,-187 646.3429,-187 646.3429,-151 729.6571,-151 729.6571,-187"/>
<text text-anchor="middle" x="688" y="-164.8" font-family="Times,serif" font-size="14.00" fill="#000000">AppModule</text>
</g>
<!-- AppComponent&#45;&gt;AppModule -->
<g id="edge1" class="edge">
<title>AppComponent&#45;&gt;AppModule</title>
<path fill="none" stroke="#000000" d="M1322,-122.0109C1322,-144.4852 1322,-180 1322,-180 1322,-180 740.0895,-180 740.0895,-180"/>
<polygon fill="#000000" stroke="#000000" points="740.0895,-176.5001 730.0895,-180 740.0895,-183.5001 740.0895,-176.5001"/>
</g>
<!-- ForgotPasswordComponent -->
<g id="node2" class="node">
<title>ForgotPasswordComponent</title>
<polygon fill="#ffffb3" stroke="#000000" points="1251.3201,-122 1078.6799,-122 1078.6799,-86 1251.3201,-86 1251.3201,-122"/>
<text text-anchor="middle" x="1165" y="-99.8" font-family="Times,serif" font-size="14.00" fill="#000000">ForgotPasswordComponent</text>
</g>
<!-- ForgotPasswordComponent&#45;&gt;AppModule -->
<g id="edge2" class="edge">
<title>ForgotPasswordComponent&#45;&gt;AppModule</title>
<path fill="none" stroke="#000000" d="M1165,-122.1289C1165,-142.5724 1165,-173 1165,-173 1165,-173 739.9125,-173 739.9125,-173"/>
<polygon fill="#000000" stroke="#000000" points="739.9125,-169.5001 729.9125,-173 739.9125,-176.5001 739.9125,-169.5001"/>
</g>
<!-- LoginComponent -->
<g id="node3" class="node">
<title>LoginComponent</title>
<polygon fill="#ffffb3" stroke="#000000" points="1060.2758,-122 945.7242,-122 945.7242,-86 1060.2758,-86 1060.2758,-122"/>
<text text-anchor="middle" x="1003" y="-99.8" font-family="Times,serif" font-size="14.00" fill="#000000">LoginComponent</text>
</g>
<!-- LoginComponent&#45;&gt;AppModule -->
<g id="edge3" class="edge">
<title>LoginComponent&#45;&gt;AppModule</title>
<path fill="none" stroke="#000000" d="M1003,-122.2667C1003,-140.5552 1003,-166 1003,-166 1003,-166 739.8296,-166 739.8296,-166"/>
<polygon fill="#000000" stroke="#000000" points="739.8296,-162.5001 729.8296,-166 739.8295,-169.5001 739.8296,-162.5001"/>
</g>
<!-- PageNotFoundComponent -->
<g id="node4" class="node">
<title>PageNotFoundComponent</title>
<polygon fill="#ffffb3" stroke="#000000" points="927.8243,-122 762.1757,-122 762.1757,-86 927.8243,-86 927.8243,-122"/>
<text text-anchor="middle" x="845" y="-99.8" font-family="Times,serif" font-size="14.00" fill="#000000">PageNotFoundComponent</text>
</g>
<!-- PageNotFoundComponent&#45;&gt;AppModule -->
<g id="edge4" class="edge">
<title>PageNotFoundComponent&#45;&gt;AppModule</title>
<path fill="none" stroke="#000000" d="M845,-122.0091C845,-138.0494 845,-159 845,-159 845,-159 739.6609,-159 739.6609,-159"/>
<polygon fill="#000000" stroke="#000000" points="739.661,-155.5001 729.6609,-159 739.6609,-162.5001 739.661,-155.5001"/>
</g>
<!-- AppComponent  -->
<g id="node7" class="node">
<title>AppComponent </title>
<polygon fill="#80b1d3" stroke="#000000" points="742.439,-252 633.561,-252 633.561,-216 742.439,-216 742.439,-252"/>
<text text-anchor="middle" x="688" y="-229.8" font-family="Times,serif" font-size="14.00" fill="#000000">AppComponent </text>
</g>
<!-- AppModule&#45;&gt;AppComponent  -->
<g id="edge6" class="edge">
<title>AppModule&#45;&gt;AppComponent </title>
<path fill="none" stroke="#000000" stroke-dasharray="1,5" d="M688,-187.1061C688,-187.1061 688,-205.991 688,-205.991"/>
<polygon fill="#000000" stroke="#000000" points="684.5001,-205.9909 688,-215.991 691.5001,-205.991 684.5001,-205.9909"/>
</g>
<!-- LayoutModule -->
<g id="node6" class="node">
<title>LayoutModule</title>
<polygon fill="#8dd3c7" stroke="#000000" points="737.7078,-122 734.7078,-126 713.7078,-126 710.7078,-122 638.2922,-122 638.2922,-86 737.7078,-86 737.7078,-122"/>
<text text-anchor="middle" x="688" y="-99.8" font-family="Times,serif" font-size="14.00" fill="#000000">LayoutModule</text>
</g>
<!-- LayoutModule&#45;&gt;AppModule -->
<g id="edge5" class="edge">
<title>LayoutModule&#45;&gt;AppModule</title>
<path fill="none" stroke="#000000" d="M688,-122.1061C688,-122.1061 688,-140.991 688,-140.991"/>
<polygon fill="#000000" stroke="#000000" points="684.5001,-140.9909 688,-150.991 691.5001,-140.991 684.5001,-140.9909"/>
</g>
<!-- AdminService -->
<g id="node8" class="node">
<title>AdminService</title>
<ellipse fill="#fdb462" stroke="#000000" cx="547" cy="-104" rx="66.6325" ry="18"/>
<text text-anchor="middle" x="547" y="-99.8" font-family="Times,serif" font-size="14.00" fill="#000000">AdminService</text>
</g>
<!-- AdminService&#45;&gt;AppModule -->
<g id="edge7" class="edge">
<title>AdminService&#45;&gt;AppModule</title>
<path fill="none" stroke="#000000" d="M547,-122.0091C547,-138.0494 547,-159 547,-159 547,-159 636.0771,-159 636.0771,-159"/>
<polygon fill="#000000" stroke="#000000" points="636.0771,-162.5001 646.0771,-159 636.0771,-155.5001 636.0771,-162.5001"/>
</g>
<!-- AuthGuard -->
<g id="node9" class="node">
<title>AuthGuard</title>
<ellipse fill="#fdb462" stroke="#000000" cx="408" cy="-104" rx="54.4566" ry="18"/>
<text text-anchor="middle" x="408" y="-99.8" font-family="Times,serif" font-size="14.00" fill="#000000">AuthGuard</text>
</g>
<!-- AuthGuard&#45;&gt;AppModule -->
<g id="edge8" class="edge">
<title>AuthGuard&#45;&gt;AppModule</title>
<path fill="none" stroke="#000000" d="M408,-122.2667C408,-140.5552 408,-166 408,-166 408,-166 636.0812,-166 636.0812,-166"/>
<polygon fill="#000000" stroke="#000000" points="636.0812,-169.5001 646.0812,-166 636.0811,-162.5001 636.0812,-169.5001"/>
</g>
<!-- CommonService -->
<g id="node10" class="node">
<title>CommonService</title>
<ellipse fill="#fdb462" stroke="#000000" cx="260" cy="-104" rx="75.8836" ry="18"/>
<text text-anchor="middle" x="260" y="-99.8" font-family="Times,serif" font-size="14.00" fill="#000000">CommonService</text>
</g>
<!-- CommonService&#45;&gt;AppModule -->
<g id="edge9" class="edge">
<title>CommonService&#45;&gt;AppModule</title>
<path fill="none" stroke="#000000" d="M260,-122.1289C260,-142.5724 260,-173 260,-173 260,-173 636.1823,-173 636.1823,-173"/>
<polygon fill="#000000" stroke="#000000" points="636.1823,-176.5001 646.1823,-173 636.1822,-169.5001 636.1823,-176.5001"/>
</g>
<!-- HttpInterceptor -->
<g id="node11" class="node">
<title>HttpInterceptor</title>
<ellipse fill="#fdb462" stroke="#000000" cx="95" cy="-104" rx="70.622" ry="18"/>
<text text-anchor="middle" x="95" y="-99.8" font-family="Times,serif" font-size="14.00" fill="#000000">HttpInterceptor</text>
</g>
<!-- HttpInterceptor&#45;&gt;AppModule -->
<g id="edge10" class="edge">
<title>HttpInterceptor&#45;&gt;AppModule</title>
<path fill="none" stroke="#000000" d="M95,-122.0109C95,-144.4852 95,-180 95,-180 95,-180 636.3014,-180 636.3014,-180"/>
<polygon fill="#000000" stroke="#000000" points="636.3014,-183.5001 646.3014,-180 636.3014,-176.5001 636.3014,-183.5001"/>
</g>
</g>
</svg>
