<?xml version="1.0" encoding="UTF-8" standalone="no"?>
<!DOCTYPE svg PUBLIC "-//W3C//DTD SVG 1.1//EN"
 "http://www.w3.org/Graphics/SVG/1.1/DTD/svg11.dtd">
<!-- Generated by graphviz version 2.40.1 (20161225.0304)
 -->
<!-- Title: dependencies Pages: 1 -->
<svg width="1346pt" height="284pt"
 viewBox="0.00 0.00 1346.00 284.00" xmlns="http://www.w3.org/2000/svg" xmlns:xlink="http://www.w3.org/1999/xlink">
<g id="graph0" class="graph" transform="scale(1 1) rotate(0) translate(4 280)">
<title>dependencies</title>
<polygon fill="#ffffff" stroke="transparent" points="-4,4 -4,-280 1342,-280 1342,4 -4,4"/>
<text text-anchor="start" x="648.0091" y="-42.4" font-family="sans-serif" font-weight="bold" font-size="14.00" fill="#000000">Legend</text>
<polygon fill="#ffffb3" stroke="transparent" points="435,-10 435,-30 455,-30 455,-10 435,-10"/>
<text text-anchor="start" x="458.629" y="-15.4" font-family="sans-serif" font-size="14.00" fill="#000000"> &#160;Declarations</text>
<polygon fill="#8dd3c7" stroke="transparent" points="548,-10 548,-30 568,-30 568,-10 548,-10"/>
<text text-anchor="start" x="571.7251" y="-15.4" font-family="sans-serif" font-size="14.00" fill="#000000"> &#160;Module</text>
<polygon fill="#80b1d3" stroke="transparent" points="634,-10 634,-30 654,-30 654,-10 634,-10"/>
<text text-anchor="start" x="657.7812" y="-15.4" font-family="sans-serif" font-size="14.00" fill="#000000"> &#160;Bootstrap</text>
<polygon fill="#fdb462" stroke="transparent" points="731,-10 731,-30 751,-30 751,-10 731,-10"/>
<text text-anchor="start" x="754.6732" y="-15.4" font-family="sans-serif" font-size="14.00" fill="#000000"> &#160;Providers</text>
<polygon fill="#fb8072" stroke="transparent" points="827,-10 827,-30 847,-30 847,-10 827,-10"/>
<text text-anchor="start" x="850.7258" y="-15.4" font-family="sans-serif" font-size="14.00" fill="#000000"> &#160;Exports</text>
<g id="clust1" class="cluster">
<title>cluster_LayoutModule</title>
<polygon fill="none" stroke="#000000" stroke-dasharray="1,5" points="8,-70 8,-268 1330,-268 1330,-70 8,-70"/>
</g>
<g id="clust2" class="cluster">
<title>cluster_LayoutModule_declarations</title>
<polygon fill="none" stroke="#000000" points="184,-78 184,-130 1322,-130 1322,-78 184,-78"/>
</g>
<g id="clust10" class="cluster">
<title>cluster_LayoutModule_imports</title>
<polygon fill="none" stroke="#000000" points="16,-78 16,-130 176,-130 176,-78 16,-78"/>
</g>
<g id="clust12" class="cluster">
<title>cluster_LayoutModule_bootstrap</title>
<polygon fill="none" stroke="#000000" points="596,-208 596,-260 736,-260 736,-208 596,-208"/>
</g>
<!-- AddressComponent -->
<g id="node1" class="node">
<title>AddressComponent</title>
<polygon fill="#ffffb3" stroke="#000000" points="1313.7036,-122 1186.2964,-122 1186.2964,-86 1313.7036,-86 1313.7036,-122"/>
<text text-anchor="middle" x="1250" y="-99.8" font-family="Times,serif" font-size="14.00" fill="#000000">AddressComponent</text>
</g>
<!-- LayoutModule -->
<g id="node8" class="node">
<title>LayoutModule</title>
<polygon fill="#8dd3c7" stroke="#000000" points="715.7078,-187 712.7078,-191 691.7078,-191 688.7078,-187 616.2922,-187 616.2922,-151 715.7078,-151 715.7078,-187"/>
<text text-anchor="middle" x="666" y="-164.8" font-family="Times,serif" font-size="14.00" fill="#000000">LayoutModule</text>
</g>
<!-- AddressComponent&#45;&gt;LayoutModule -->
<g id="edge1" class="edge">
<title>AddressComponent&#45;&gt;LayoutModule</title>
<path fill="none" stroke="#000000" d="M1250,-122.2921C1250,-144.2057 1250,-178 1250,-178 1250,-178 725.7915,-178 725.7915,-178"/>
<polygon fill="#000000" stroke="#000000" points="725.7915,-174.5001 715.7915,-178 725.7915,-181.5001 725.7915,-174.5001"/>
</g>
<!-- AppFooterComponent -->
<g id="node2" class="node">
<title>AppFooterComponent</title>
<polygon fill="#ffffb3" stroke="#000000" points="1167.9874,-122 1026.0126,-122 1026.0126,-86 1167.9874,-86 1167.9874,-122"/>
<text text-anchor="middle" x="1097" y="-99.8" font-family="Times,serif" font-size="14.00" fill="#000000">AppFooterComponent</text>
</g>
<!-- AppFooterComponent&#45;&gt;LayoutModule -->
<g id="edge2" class="edge">
<title>AppFooterComponent&#45;&gt;LayoutModule</title>
<path fill="none" stroke="#000000" d="M1097,-122.1061C1097,-141.3391 1097,-169 1097,-169 1097,-169 725.8622,-169 725.8622,-169"/>
<polygon fill="#000000" stroke="#000000" points="725.8623,-165.5001 715.8622,-169 725.8622,-172.5001 725.8623,-165.5001"/>
</g>
<!-- AppHeaderComponent -->
<g id="node3" class="node">
<title>AppHeaderComponent</title>
<polygon fill="#ffffb3" stroke="#000000" points="1007.8501,-122 862.1499,-122 862.1499,-86 1007.8501,-86 1007.8501,-122"/>
<text text-anchor="middle" x="935" y="-99.8" font-family="Times,serif" font-size="14.00" fill="#000000">AppHeaderComponent</text>
</g>
<!-- AppHeaderComponent&#45;&gt;LayoutModule -->
<g id="edge3" class="edge">
<title>AppHeaderComponent&#45;&gt;LayoutModule</title>
<path fill="none" stroke="#000000" d="M935,-122.027C935,-138.3976 935,-160 935,-160 935,-160 725.6522,-160 725.6522,-160"/>
<polygon fill="#000000" stroke="#000000" points="725.6523,-156.5001 715.6522,-160 725.6522,-163.5001 725.6523,-156.5001"/>
</g>
<!-- ChangePasswordComponent -->
<g id="node4" class="node">
<title>ChangePasswordComponent</title>
<polygon fill="#ffffb3" stroke="#000000" points="843.752,-122 666.248,-122 666.248,-86 843.752,-86 843.752,-122"/>
<text text-anchor="middle" x="755" y="-99.8" font-family="Times,serif" font-size="14.00" fill="#000000">ChangePasswordComponent</text>
</g>
<!-- ChangePasswordComponent&#45;&gt;LayoutModule -->
<g id="edge4" class="edge">
<title>ChangePasswordComponent&#45;&gt;LayoutModule</title>
<path fill="none" stroke="#000000" d="M690.8639,-122.1061C690.8639,-122.1061 690.8639,-140.991 690.8639,-140.991"/>
<polygon fill="#000000" stroke="#000000" points="687.364,-140.9909 690.8639,-150.991 694.364,-140.991 687.364,-140.9909"/>
</g>
<!-- DashboardComponent -->
<g id="node5" class="node">
<title>DashboardComponent</title>
<polygon fill="#ffffb3" stroke="#000000" points="647.9734,-122 506.0266,-122 506.0266,-86 647.9734,-86 647.9734,-122"/>
<text text-anchor="middle" x="577" y="-99.8" font-family="Times,serif" font-size="14.00" fill="#000000">DashboardComponent</text>
</g>
<!-- DashboardComponent&#45;&gt;LayoutModule -->
<g id="edge5" class="edge">
<title>DashboardComponent&#45;&gt;LayoutModule</title>
<path fill="none" stroke="#000000" d="M632.1915,-122.1061C632.1915,-122.1061 632.1915,-140.991 632.1915,-140.991"/>
<polygon fill="#000000" stroke="#000000" points="628.6915,-140.9909 632.1915,-150.991 635.6915,-140.991 628.6915,-140.9909"/>
</g>
<!-- InhouseUsersComponent -->
<g id="node6" class="node">
<title>InhouseUsersComponent</title>
<polygon fill="#ffffb3" stroke="#000000" points="487.5239,-122 330.4761,-122 330.4761,-86 487.5239,-86 487.5239,-122"/>
<text text-anchor="middle" x="409" y="-99.8" font-family="Times,serif" font-size="14.00" fill="#000000">InhouseUsersComponent</text>
</g>
<!-- InhouseUsersComponent&#45;&gt;LayoutModule -->
<g id="edge6" class="edge">
<title>InhouseUsersComponent&#45;&gt;LayoutModule</title>
<path fill="none" stroke="#000000" d="M409,-122.027C409,-138.3976 409,-160 409,-160 409,-160 606.1431,-160 606.1431,-160"/>
<polygon fill="#000000" stroke="#000000" points="606.1431,-163.5001 616.1431,-160 606.1431,-156.5001 606.1431,-163.5001"/>
</g>
<!-- LayoutComponent -->
<g id="node7" class="node">
<title>LayoutComponent</title>
<polygon fill="#ffffb3" stroke="#000000" points="312.4902,-122 191.5098,-122 191.5098,-86 312.4902,-86 312.4902,-122"/>
<text text-anchor="middle" x="252" y="-99.8" font-family="Times,serif" font-size="14.00" fill="#000000">LayoutComponent</text>
</g>
<!-- LayoutComponent&#45;&gt;LayoutModule -->
<g id="edge7" class="edge">
<title>LayoutComponent&#45;&gt;LayoutModule</title>
<path fill="none" stroke="#000000" d="M252,-122.1061C252,-141.3391 252,-169 252,-169 252,-169 606.0619,-169 606.0619,-169"/>
<polygon fill="#000000" stroke="#000000" points="606.062,-172.5001 616.0619,-169 606.0619,-165.5001 606.062,-172.5001"/>
</g>
<!-- LayoutComponent  -->
<g id="node10" class="node">
<title>LayoutComponent </title>
<polygon fill="#80b1d3" stroke="#000000" points="728.4912,-252 603.5088,-252 603.5088,-216 728.4912,-216 728.4912,-252"/>
<text text-anchor="middle" x="666" y="-229.8" font-family="Times,serif" font-size="14.00" fill="#000000">LayoutComponent </text>
</g>
<!-- LayoutModule&#45;&gt;LayoutComponent  -->
<g id="edge9" class="edge">
<title>LayoutModule&#45;&gt;LayoutComponent </title>
<path fill="none" stroke="#000000" stroke-dasharray="1,5" d="M666,-187.1061C666,-187.1061 666,-205.991 666,-205.991"/>
<polygon fill="#000000" stroke="#000000" points="662.5001,-205.9909 666,-215.991 669.5001,-205.991 662.5001,-205.9909"/>
</g>
<!-- LayoutRoutingModule -->
<g id="node9" class="node">
<title>LayoutRoutingModule</title>
<polygon fill="#8dd3c7" stroke="#000000" points="168.3258,-122 165.3258,-126 144.3258,-126 141.3258,-122 23.6742,-122 23.6742,-86 168.3258,-86 168.3258,-122"/>
<text text-anchor="middle" x="96" y="-99.8" font-family="Times,serif" font-size="14.00" fill="#000000">LayoutRoutingModule</text>
</g>
<!-- LayoutRoutingModule&#45;&gt;LayoutModule -->
<g id="edge8" class="edge">
<title>LayoutRoutingModule&#45;&gt;LayoutModule</title>
<path fill="none" stroke="#000000" d="M96,-122.2921C96,-144.2057 96,-178 96,-178 96,-178 605.9159,-178 605.9159,-178"/>
<polygon fill="#000000" stroke="#000000" points="605.9159,-181.5001 615.9159,-178 605.9158,-174.5001 605.9159,-181.5001"/>
</g>
</g>
</svg>
