<?xml version="1.0" encoding="UTF-8" standalone="no"?>
<!DOCTYPE svg PUBLIC "-//W3C//DTD SVG 1.1//EN"
 "http://www.w3.org/Graphics/SVG/1.1/DTD/svg11.dtd">
<!-- Generated by graphviz version 2.40.1 (20161225.0304)
 -->
<!-- Title: dependencies Pages: 1 -->
<svg width="4989pt" height="360pt"
 viewBox="0.00 0.00 4989.00 360.00" xmlns="http://www.w3.org/2000/svg" xmlns:xlink="http://www.w3.org/1999/xlink">
<g id="graph0" class="graph" transform="scale(1 1) rotate(0) translate(4 356)">
<title>dependencies</title>
<polygon fill="#ffffff" stroke="transparent" points="-4,4 -4,-356 4985,-356 4985,4 -4,4"/>
<text text-anchor="start" x="2469.5091" y="-42.4" font-family="sans-serif" font-weight="bold" font-size="14.00" fill="#000000">Legend</text>
<polygon fill="#ffffb3" stroke="transparent" points="2256.5,-10 2256.5,-30 2276.5,-30 2276.5,-10 2256.5,-10"/>
<text text-anchor="start" x="2280.129" y="-15.4" font-family="sans-serif" font-size="14.00" fill="#000000"> &#160;Declarations</text>
<polygon fill="#8dd3c7" stroke="transparent" points="2369.5,-10 2369.5,-30 2389.5,-30 2389.5,-10 2369.5,-10"/>
<text text-anchor="start" x="2393.2251" y="-15.4" font-family="sans-serif" font-size="14.00" fill="#000000"> &#160;Module</text>
<polygon fill="#80b1d3" stroke="transparent" points="2455.5,-10 2455.5,-30 2475.5,-30 2475.5,-10 2455.5,-10"/>
<text text-anchor="start" x="2479.2812" y="-15.4" font-family="sans-serif" font-size="14.00" fill="#000000"> &#160;Bootstrap</text>
<polygon fill="#fdb462" stroke="transparent" points="2552.5,-10 2552.5,-30 2572.5,-30 2572.5,-10 2552.5,-10"/>
<text text-anchor="start" x="2576.1732" y="-15.4" font-family="sans-serif" font-size="14.00" fill="#000000"> &#160;Providers</text>
<polygon fill="#fb8072" stroke="transparent" points="2648.5,-10 2648.5,-30 2668.5,-30 2668.5,-10 2648.5,-10"/>
<text text-anchor="start" x="2672.2258" y="-15.4" font-family="sans-serif" font-size="14.00" fill="#000000"> &#160;Exports</text>
<g id="clust1" class="cluster">
<title>cluster_AppModule</title>
<polygon fill="none" stroke="#000000" stroke-dasharray="1,5" points="45,-146 45,-344 1428,-344 1428,-146 45,-146"/>
</g>
<g id="clust2" class="cluster">
<title>cluster_AppModule_declarations</title>
<polygon fill="none" stroke="#000000" points="791,-154 791,-206 1420,-206 1420,-154 791,-154"/>
</g>
<g id="clust7" class="cluster">
<title>cluster_AppModule_imports</title>
<polygon fill="none" stroke="#000000" points="667,-154 667,-206 783,-206 783,-154 667,-154"/>
</g>
<g id="clust9" class="cluster">
<title>cluster_AppModule_bootstrap</title>
<polygon fill="none" stroke="#000000" points="663,-284 663,-336 787,-336 787,-284 663,-284"/>
</g>
<g id="clust10" class="cluster">
<title>cluster_AppModule_providers</title>
<polygon fill="none" stroke="#000000" points="53,-154 53,-206 659,-206 659,-154 53,-154"/>
</g>
<g id="clust11" class="cluster">
<title>cluster_LayoutModule</title>
<polygon fill="none" stroke="#000000" stroke-dasharray="1,5" points="8,-70 8,-138 1478,-138 1478,-70 8,-70"/>
</g>
<g id="clust12" class="cluster">
<title>cluster_LayoutModule_declarations</title>
<polygon fill="none" stroke="#000000" points="332,-78 332,-130 1470,-130 1470,-78 332,-78"/>
</g>
<g id="clust20" class="cluster">
<title>cluster_LayoutModule_imports</title>
<polygon fill="none" stroke="#000000" points="164,-78 164,-130 324,-130 324,-78 164,-78"/>
</g>
<g id="clust22" class="cluster">
<title>cluster_LayoutModule_bootstrap</title>
<polygon fill="none" stroke="#000000" points="16,-78 16,-130 156,-130 156,-78 16,-78"/>
</g>
<g id="clust30" class="cluster">
<title>cluster_LeadsModule</title>
<polygon fill="none" stroke="#000000" stroke-dasharray="1,5" points="1486,-70 1486,-206 3171,-206 3171,-70 1486,-70"/>
</g>
<g id="clust31" class="cluster">
<title>cluster_LeadsModule_declarations</title>
<polygon fill="none" stroke="#000000" points="1494,-78 1494,-130 3163,-130 3163,-78 1494,-78"/>
</g>
<g id="clust46" class="cluster">
<title>cluster_ProjectsModule</title>
<polygon fill="none" stroke="#000000" stroke-dasharray="1,5" points="3179,-70 3179,-206 3501,-206 3501,-70 3179,-70"/>
</g>
<g id="clust47" class="cluster">
<title>cluster_ProjectsModule_declarations</title>
<polygon fill="none" stroke="#000000" points="3187,-78 3187,-130 3493,-130 3493,-78 3187,-78"/>
</g>
<g id="clust54" class="cluster">
<title>cluster_PropertiesModule</title>
<polygon fill="none" stroke="#000000" stroke-dasharray="1,5" points="3509,-70 3509,-206 3851,-206 3851,-70 3509,-70"/>
</g>
<g id="clust55" class="cluster">
<title>cluster_PropertiesModule_declarations</title>
<polygon fill="none" stroke="#000000" points="3517,-78 3517,-130 3843,-130 3843,-78 3517,-78"/>
</g>
<g id="clust62" class="cluster">
<title>cluster_SettingsModule</title>
<polygon fill="none" stroke="#000000" stroke-dasharray="1,5" points="3859,-70 3859,-206 4759,-206 4759,-70 3859,-70"/>
</g>
<g id="clust63" class="cluster">
<title>cluster_SettingsModule_declarations</title>
<polygon fill="none" stroke="#000000" points="3867,-78 3867,-130 4751,-130 4751,-78 3867,-78"/>
</g>
<g id="clust74" class="cluster">
<title>cluster_UsersModule</title>
<polygon fill="none" stroke="#000000" stroke-dasharray="1,5" points="4767,-70 4767,-271 4973,-271 4973,-70 4767,-70"/>
</g>
<g id="clust75" class="cluster">
<title>cluster_UsersModule_declarations</title>
<polygon fill="none" stroke="#000000" points="4805,-154 4805,-206 4935,-206 4935,-154 4805,-154"/>
</g>
<g id="clust76" class="cluster">
<title>cluster_UsersModule_UsersComponent_providers</title>
<polygon fill="none" stroke="#000000" points="4775,-78 4775,-130 4965,-130 4965,-78 4775,-78"/>
</g>
<!-- AppComponent -->
<g id="node1" class="node">
<title>AppComponent</title>
<polygon fill="#ffffb3" stroke="#000000" points="1411.9399,-198 1306.0601,-198 1306.0601,-162 1411.9399,-162 1411.9399,-198"/>
<text text-anchor="middle" x="1359" y="-175.8" font-family="Times,serif" font-size="14.00" fill="#000000">AppComponent</text>
</g>
<!-- AppModule -->
<g id="node5" class="node">
<title>AppModule</title>
<polygon fill="#8dd3c7" stroke="#000000" points="766.6571,-263 763.6571,-267 742.6571,-267 739.6571,-263 683.3429,-263 683.3429,-227 766.6571,-227 766.6571,-263"/>
<text text-anchor="middle" x="725" y="-240.8" font-family="Times,serif" font-size="14.00" fill="#000000">AppModule</text>
</g>
<!-- AppComponent&#45;&gt;AppModule -->
<g id="edge1" class="edge">
<title>AppComponent&#45;&gt;AppModule</title>
<path fill="none" stroke="#000000" d="M1359,-198.0109C1359,-220.4852 1359,-256 1359,-256 1359,-256 777.0895,-256 777.0895,-256"/>
<polygon fill="#000000" stroke="#000000" points="777.0895,-252.5001 767.0895,-256 777.0895,-259.5001 777.0895,-252.5001"/>
</g>
<!-- ForgotPasswordComponent -->
<g id="node2" class="node">
<title>ForgotPasswordComponent</title>
<polygon fill="#ffffb3" stroke="#000000" points="1288.3201,-198 1115.6799,-198 1115.6799,-162 1288.3201,-162 1288.3201,-198"/>
<text text-anchor="middle" x="1202" y="-175.8" font-family="Times,serif" font-size="14.00" fill="#000000">ForgotPasswordComponent</text>
</g>
<!-- ForgotPasswordComponent&#45;&gt;AppModule -->
<g id="edge2" class="edge">
<title>ForgotPasswordComponent&#45;&gt;AppModule</title>
<path fill="none" stroke="#000000" d="M1202,-198.1289C1202,-218.5724 1202,-249 1202,-249 1202,-249 776.9125,-249 776.9125,-249"/>
<polygon fill="#000000" stroke="#000000" points="776.9125,-245.5001 766.9125,-249 776.9125,-252.5001 776.9125,-245.5001"/>
</g>
<!-- LoginComponent -->
<g id="node3" class="node">
<title>LoginComponent</title>
<polygon fill="#ffffb3" stroke="#000000" points="1097.2758,-198 982.7242,-198 982.7242,-162 1097.2758,-162 1097.2758,-198"/>
<text text-anchor="middle" x="1040" y="-175.8" font-family="Times,serif" font-size="14.00" fill="#000000">LoginComponent</text>
</g>
<!-- LoginComponent&#45;&gt;AppModule -->
<g id="edge3" class="edge">
<title>LoginComponent&#45;&gt;AppModule</title>
<path fill="none" stroke="#000000" d="M1040,-198.2667C1040,-216.5552 1040,-242 1040,-242 1040,-242 776.8296,-242 776.8296,-242"/>
<polygon fill="#000000" stroke="#000000" points="776.8296,-238.5001 766.8296,-242 776.8295,-245.5001 776.8296,-238.5001"/>
</g>
<!-- PageNotFoundComponent -->
<g id="node4" class="node">
<title>PageNotFoundComponent</title>
<polygon fill="#ffffb3" stroke="#000000" points="964.8243,-198 799.1757,-198 799.1757,-162 964.8243,-162 964.8243,-198"/>
<text text-anchor="middle" x="882" y="-175.8" font-family="Times,serif" font-size="14.00" fill="#000000">PageNotFoundComponent</text>
</g>
<!-- PageNotFoundComponent&#45;&gt;AppModule -->
<g id="edge4" class="edge">
<title>PageNotFoundComponent&#45;&gt;AppModule</title>
<path fill="none" stroke="#000000" d="M882,-198.0091C882,-214.0494 882,-235 882,-235 882,-235 776.6609,-235 776.6609,-235"/>
<polygon fill="#000000" stroke="#000000" points="776.661,-231.5001 766.6609,-235 776.6609,-238.5001 776.661,-231.5001"/>
</g>
<!-- AppComponent  -->
<g id="node7" class="node">
<title>AppComponent </title>
<polygon fill="#80b1d3" stroke="#000000" points="779.439,-328 670.561,-328 670.561,-292 779.439,-292 779.439,-328"/>
<text text-anchor="middle" x="725" y="-305.8" font-family="Times,serif" font-size="14.00" fill="#000000">AppComponent </text>
</g>
<!-- AppModule&#45;&gt;AppComponent  -->
<g id="edge6" class="edge">
<title>AppModule&#45;&gt;AppComponent </title>
<path fill="none" stroke="#000000" stroke-dasharray="1,5" d="M725,-263.1061C725,-263.1061 725,-281.991 725,-281.991"/>
<polygon fill="#000000" stroke="#000000" points="721.5001,-281.9909 725,-291.991 728.5001,-281.991 721.5001,-281.9909"/>
</g>
<!-- LayoutModule -->
<g id="node6" class="node">
<title>LayoutModule</title>
<polygon fill="#8dd3c7" stroke="#000000" points="774.7078,-198 771.7078,-202 750.7078,-202 747.7078,-198 675.2922,-198 675.2922,-162 774.7078,-162 774.7078,-198"/>
<text text-anchor="middle" x="725" y="-175.8" font-family="Times,serif" font-size="14.00" fill="#000000">LayoutModule</text>
</g>
<!-- LayoutModule&#45;&gt;AppModule -->
<g id="edge5" class="edge">
<title>LayoutModule&#45;&gt;AppModule</title>
<path fill="none" stroke="#000000" d="M725,-198.1061C725,-198.1061 725,-216.991 725,-216.991"/>
<polygon fill="#000000" stroke="#000000" points="721.5001,-216.9909 725,-226.991 728.5001,-216.991 721.5001,-216.9909"/>
</g>
<!-- LayoutComponent  -->
<g id="node20" class="node">
<title>LayoutComponent </title>
<polygon fill="#80b1d3" stroke="#000000" points="148.4912,-122 23.5088,-122 23.5088,-86 148.4912,-86 148.4912,-122"/>
<text text-anchor="middle" x="86" y="-99.8" font-family="Times,serif" font-size="14.00" fill="#000000">LayoutComponent </text>
</g>
<!-- LayoutModule&#45;&gt;LayoutComponent  -->
<g id="edge19" class="edge">
<title>LayoutModule&#45;&gt;LayoutComponent </title>
<path fill="none" stroke="#000000" stroke-dasharray="1,5" d="M685.317,-161.8321C685.317,-159.5522 685.317,-158 685.317,-158 685.317,-158 104.8421,-158 104.8421,-158 104.8421,-158 104.8421,-132.2819 104.8421,-132.2819"/>
<polygon fill="#000000" stroke="#000000" points="108.3422,-132.2819 104.8421,-122.2819 101.3422,-132.282 108.3422,-132.2819"/>
</g>
<!-- AdminService -->
<g id="node8" class="node">
<title>AdminService</title>
<ellipse fill="#fdb462" stroke="#000000" cx="584" cy="-180" rx="66.6325" ry="18"/>
<text text-anchor="middle" x="584" y="-175.8" font-family="Times,serif" font-size="14.00" fill="#000000">AdminService</text>
</g>
<!-- AdminService&#45;&gt;AppModule -->
<g id="edge7" class="edge">
<title>AdminService&#45;&gt;AppModule</title>
<path fill="none" stroke="#000000" d="M584,-198.0091C584,-214.0494 584,-235 584,-235 584,-235 673.0771,-235 673.0771,-235"/>
<polygon fill="#000000" stroke="#000000" points="673.0771,-238.5001 683.0771,-235 673.0771,-231.5001 673.0771,-238.5001"/>
</g>
<!-- AuthGuard -->
<g id="node9" class="node">
<title>AuthGuard</title>
<ellipse fill="#fdb462" stroke="#000000" cx="445" cy="-180" rx="54.4566" ry="18"/>
<text text-anchor="middle" x="445" y="-175.8" font-family="Times,serif" font-size="14.00" fill="#000000">AuthGuard</text>
</g>
<!-- AuthGuard&#45;&gt;AppModule -->
<g id="edge8" class="edge">
<title>AuthGuard&#45;&gt;AppModule</title>
<path fill="none" stroke="#000000" d="M445,-198.2667C445,-216.5552 445,-242 445,-242 445,-242 673.0812,-242 673.0812,-242"/>
<polygon fill="#000000" stroke="#000000" points="673.0812,-245.5001 683.0812,-242 673.0811,-238.5001 673.0812,-245.5001"/>
</g>
<!-- CommonService -->
<g id="node10" class="node">
<title>CommonService</title>
<ellipse fill="#fdb462" stroke="#000000" cx="297" cy="-180" rx="75.8836" ry="18"/>
<text text-anchor="middle" x="297" y="-175.8" font-family="Times,serif" font-size="14.00" fill="#000000">CommonService</text>
</g>
<!-- CommonService&#45;&gt;AppModule -->
<g id="edge9" class="edge">
<title>CommonService&#45;&gt;AppModule</title>
<path fill="none" stroke="#000000" d="M297,-198.1289C297,-218.5724 297,-249 297,-249 297,-249 673.1823,-249 673.1823,-249"/>
<polygon fill="#000000" stroke="#000000" points="673.1823,-252.5001 683.1823,-249 673.1822,-245.5001 673.1823,-252.5001"/>
</g>
<!-- HttpInterceptor -->
<g id="node11" class="node">
<title>HttpInterceptor</title>
<ellipse fill="#fdb462" stroke="#000000" cx="132" cy="-180" rx="70.622" ry="18"/>
<text text-anchor="middle" x="132" y="-175.8" font-family="Times,serif" font-size="14.00" fill="#000000">HttpInterceptor</text>
</g>
<!-- HttpInterceptor&#45;&gt;AppModule -->
<g id="edge10" class="edge">
<title>HttpInterceptor&#45;&gt;AppModule</title>
<path fill="none" stroke="#000000" d="M132,-198.0109C132,-220.4852 132,-256 132,-256 132,-256 673.3014,-256 673.3014,-256"/>
<polygon fill="#000000" stroke="#000000" points="673.3014,-259.5001 683.3014,-256 673.3014,-252.5001 673.3014,-259.5001"/>
</g>
<!-- AddressComponent -->
<g id="node12" class="node">
<title>AddressComponent</title>
<polygon fill="#ffffb3" stroke="#000000" points="1461.7036,-122 1334.2964,-122 1334.2964,-86 1461.7036,-86 1461.7036,-122"/>
<text text-anchor="middle" x="1398" y="-99.8" font-family="Times,serif" font-size="14.00" fill="#000000">AddressComponent</text>
</g>
<!-- AddressComponent&#45;&gt;LayoutModule -->
<g id="edge11" class="edge">
<title>AddressComponent&#45;&gt;LayoutModule</title>
<path fill="none" stroke="#000000" d="M1373.0589,-122.4218C1373.0589,-131.2791 1373.0589,-140 1373.0589,-140 1373.0589,-140 764.683,-140 764.683,-140 764.683,-140 764.683,-151.8726 764.683,-151.8726"/>
<polygon fill="#000000" stroke="#000000" points="761.1831,-151.8725 764.683,-161.8726 768.1831,-151.8726 761.1831,-151.8725"/>
</g>
<!-- AppFooterComponent -->
<g id="node13" class="node">
<title>AppFooterComponent</title>
<polygon fill="#ffffb3" stroke="#000000" points="1315.9874,-122 1174.0126,-122 1174.0126,-86 1315.9874,-86 1315.9874,-122"/>
<text text-anchor="middle" x="1245" y="-99.8" font-family="Times,serif" font-size="14.00" fill="#000000">AppFooterComponent</text>
</g>
<!-- AppFooterComponent&#45;&gt;LayoutModule -->
<g id="edge12" class="edge">
<title>AppFooterComponent&#45;&gt;LayoutModule</title>
<path fill="none" stroke="#000000" d="M1231.0831,-122.2434C1231.0831,-129.4297 1231.0831,-136 1231.0831,-136 1231.0831,-136 754.7623,-136 754.7623,-136 754.7623,-136 754.7623,-151.8495 754.7623,-151.8495"/>
<polygon fill="#000000" stroke="#000000" points="751.2624,-151.8494 754.7623,-161.8495 758.2624,-151.8495 751.2624,-151.8494"/>
</g>
<!-- AppHeaderComponent -->
<g id="node14" class="node">
<title>AppHeaderComponent</title>
<polygon fill="#ffffb3" stroke="#000000" points="1155.8501,-122 1010.1499,-122 1010.1499,-86 1155.8501,-86 1155.8501,-122"/>
<text text-anchor="middle" x="1083" y="-99.8" font-family="Times,serif" font-size="14.00" fill="#000000">AppHeaderComponent</text>
</g>
<!-- AppHeaderComponent&#45;&gt;LayoutModule -->
<g id="edge13" class="edge">
<title>AppHeaderComponent&#45;&gt;LayoutModule</title>
<path fill="none" stroke="#000000" d="M1053.7314,-122.1592C1053.7314,-127.0433 1053.7314,-131 1053.7314,-131 1053.7314,-131 744.8415,-131 744.8415,-131 744.8415,-131 744.8415,-151.7542 744.8415,-151.7542"/>
<polygon fill="#000000" stroke="#000000" points="741.3416,-151.7542 744.8415,-161.7542 748.3416,-151.7542 741.3416,-151.7542"/>
</g>
<!-- ChangePasswordComponent -->
<g id="node15" class="node">
<title>ChangePasswordComponent</title>
<polygon fill="#ffffb3" stroke="#000000" points="991.752,-122 814.248,-122 814.248,-86 991.752,-86 991.752,-122"/>
<text text-anchor="middle" x="903" y="-99.8" font-family="Times,serif" font-size="14.00" fill="#000000">ChangePasswordComponent</text>
</g>
<!-- ChangePasswordComponent&#45;&gt;LayoutModule -->
<g id="edge14" class="edge">
<title>ChangePasswordComponent&#45;&gt;LayoutModule</title>
<path fill="none" stroke="#000000" d="M889.3931,-122.1223C889.3931,-124.9729 889.3931,-127 889.3931,-127 889.3931,-127 734.9208,-127 734.9208,-127 734.9208,-127 734.9208,-151.7604 734.9208,-151.7604"/>
<polygon fill="#000000" stroke="#000000" points="731.4209,-151.7604 734.9208,-161.7604 738.4209,-151.7604 731.4209,-151.7604"/>
</g>
<!-- DashboardComponent -->
<g id="node16" class="node">
<title>DashboardComponent</title>
<polygon fill="#ffffb3" stroke="#000000" points="795.9734,-122 654.0266,-122 654.0266,-86 795.9734,-86 795.9734,-122"/>
<text text-anchor="middle" x="725" y="-99.8" font-family="Times,serif" font-size="14.00" fill="#000000">DashboardComponent</text>
</g>
<!-- DashboardComponent&#45;&gt;LayoutModule -->
<g id="edge15" class="edge">
<title>DashboardComponent&#45;&gt;LayoutModule</title>
<path fill="none" stroke="#000000" d="M725,-122.0109C725,-122.0109 725,-151.855 725,-151.855"/>
<polygon fill="#000000" stroke="#000000" points="721.5001,-151.8549 725,-161.855 728.5001,-151.855 721.5001,-151.8549"/>
</g>
<!-- InhouseUsersComponent -->
<g id="node17" class="node">
<title>InhouseUsersComponent</title>
<polygon fill="#ffffb3" stroke="#000000" points="635.5239,-122 478.4761,-122 478.4761,-86 635.5239,-86 635.5239,-122"/>
<text text-anchor="middle" x="557" y="-99.8" font-family="Times,serif" font-size="14.00" fill="#000000">InhouseUsersComponent</text>
</g>
<!-- InhouseUsersComponent&#45;&gt;LayoutModule -->
<g id="edge16" class="edge">
<title>InhouseUsersComponent&#45;&gt;LayoutModule</title>
<path fill="none" stroke="#000000" d="M576.4728,-122.1025C576.4728,-133.0859 576.4728,-145 576.4728,-145 576.4728,-145 715.0792,-145 715.0792,-145 715.0792,-145 715.0792,-151.68 715.0792,-151.68"/>
<polygon fill="#000000" stroke="#000000" points="711.5793,-151.6799 715.0792,-161.68 718.5793,-151.68 711.5793,-151.6799"/>
</g>
<!-- LayoutComponent -->
<g id="node18" class="node">
<title>LayoutComponent</title>
<polygon fill="#ffffb3" stroke="#000000" points="460.4902,-122 339.5098,-122 339.5098,-86 460.4902,-86 460.4902,-122"/>
<text text-anchor="middle" x="400" y="-99.8" font-family="Times,serif" font-size="14.00" fill="#000000">LayoutComponent</text>
</g>
<!-- LayoutComponent&#45;&gt;LayoutModule -->
<g id="edge17" class="edge">
<title>LayoutComponent&#45;&gt;LayoutModule</title>
<path fill="none" stroke="#000000" d="M425.5084,-122.0439C425.5084,-134.5633 425.5084,-149 425.5084,-149 425.5084,-149 705.1585,-149 705.1585,-149 705.1585,-149 705.1585,-151.9672 705.1585,-151.9672"/>
<polygon fill="#000000" stroke="#000000" points="701.6586,-151.9671 705.1585,-161.9672 708.6586,-151.9672 701.6586,-151.9671"/>
</g>
<!-- LayoutRoutingModule -->
<g id="node19" class="node">
<title>LayoutRoutingModule</title>
<polygon fill="#8dd3c7" stroke="#000000" points="316.3258,-122 313.3258,-126 292.3258,-126 289.3258,-122 171.6742,-122 171.6742,-86 316.3258,-86 316.3258,-122"/>
<text text-anchor="middle" x="244" y="-99.8" font-family="Times,serif" font-size="14.00" fill="#000000">LayoutRoutingModule</text>
</g>
<!-- LayoutRoutingModule&#45;&gt;LayoutModule -->
<g id="edge18" class="edge">
<title>LayoutRoutingModule&#45;&gt;LayoutModule</title>
<path fill="none" stroke="#000000" d="M268.6105,-122.0511C268.6105,-136.373 268.6105,-154 268.6105,-154 268.6105,-154 695.2377,-154 695.2377,-154 695.2377,-154 695.2377,-154.7942 695.2377,-154.7942"/>
<polygon fill="#000000" stroke="#000000" points="691.7379,-151.9421 695.2377,-161.9421 698.7379,-151.9422 691.7379,-151.9421"/>
</g>
<!-- ChatComponent -->
<g id="node21" class="node">
<title>ChatComponent</title>
<polygon fill="#ffffb3" stroke="#000000" points="3154.7744,-122 3047.2256,-122 3047.2256,-86 3154.7744,-86 3154.7744,-122"/>
<text text-anchor="middle" x="3101" y="-99.8" font-family="Times,serif" font-size="14.00" fill="#000000">ChatComponent</text>
</g>
<!-- LeadsModule -->
<g id="node31" class="node">
<title>LeadsModule</title>
<polygon fill="#8dd3c7" stroke="#000000" points="2410.4762,-198 2407.4762,-202 2386.4762,-202 2383.4762,-198 2317.5238,-198 2317.5238,-162 2410.4762,-162 2410.4762,-198"/>
<text text-anchor="middle" x="2364" y="-175.8" font-family="Times,serif" font-size="14.00" fill="#000000">LeadsModule</text>
</g>
<!-- ChatComponent&#45;&gt;LeadsModule -->
<g id="edge20" class="edge">
<title>ChatComponent&#45;&gt;LeadsModule</title>
<path fill="none" stroke="#000000" d="M3101,-122.0265C3101,-147.5093 3101,-191 3101,-191 3101,-191 2420.6618,-191 2420.6618,-191"/>
<polygon fill="#000000" stroke="#000000" points="2420.6618,-187.5001 2410.6618,-191 2420.6617,-194.5001 2420.6618,-187.5001"/>
</g>
<!-- CsrBuyerComponent -->
<g id="node22" class="node">
<title>CsrBuyerComponent</title>
<polygon fill="#ffffb3" stroke="#000000" points="3029.486,-122 2894.514,-122 2894.514,-86 3029.486,-86 3029.486,-122"/>
<text text-anchor="middle" x="2962" y="-99.8" font-family="Times,serif" font-size="14.00" fill="#000000">CsrBuyerComponent</text>
</g>
<!-- CsrBuyerComponent&#45;&gt;LeadsModule -->
<g id="edge21" class="edge">
<title>CsrBuyerComponent&#45;&gt;LeadsModule</title>
<path fill="none" stroke="#000000" d="M2962,-122.1532C2962,-145.7566 2962,-184 2962,-184 2962,-184 2420.9241,-184 2420.9241,-184"/>
<polygon fill="#000000" stroke="#000000" points="2420.9241,-180.5001 2410.9241,-184 2420.924,-187.5001 2420.9241,-180.5001"/>
</g>
<!-- CsrBuyerDetailComponent -->
<g id="node23" class="node">
<title>CsrBuyerDetailComponent</title>
<polygon fill="#ffffb3" stroke="#000000" points="2876.6937,-122 2707.3063,-122 2707.3063,-86 2876.6937,-86 2876.6937,-122"/>
<text text-anchor="middle" x="2792" y="-99.8" font-family="Times,serif" font-size="14.00" fill="#000000">CsrBuyerDetailComponent</text>
</g>
<!-- CsrBuyerDetailComponent&#45;&gt;LeadsModule -->
<g id="edge22" class="edge">
<title>CsrBuyerDetailComponent&#45;&gt;LeadsModule</title>
<path fill="none" stroke="#000000" d="M2792,-122.0449C2792,-143.6623 2792,-177 2792,-177 2792,-177 2420.6183,-177 2420.6183,-177"/>
<polygon fill="#000000" stroke="#000000" points="2420.6183,-173.5001 2410.6183,-177 2420.6182,-180.5001 2420.6183,-173.5001"/>
</g>
<!-- CsrCloserComponent -->
<g id="node24" class="node">
<title>CsrCloserComponent</title>
<polygon fill="#ffffb3" stroke="#000000" points="2689.8216,-122 2552.1784,-122 2552.1784,-86 2689.8216,-86 2689.8216,-122"/>
<text text-anchor="middle" x="2621" y="-99.8" font-family="Times,serif" font-size="14.00" fill="#000000">CsrCloserComponent</text>
</g>
<!-- CsrCloserComponent&#45;&gt;LeadsModule -->
<g id="edge23" class="edge">
<title>CsrCloserComponent&#45;&gt;LeadsModule</title>
<path fill="none" stroke="#000000" d="M2621,-122.0348C2621,-141.5762 2621,-170 2621,-170 2621,-170 2420.5408,-170 2420.5408,-170"/>
<polygon fill="#000000" stroke="#000000" points="2420.5408,-166.5001 2410.5408,-170 2420.5407,-173.5001 2420.5408,-166.5001"/>
</g>
<!-- CsrCloserDetailComponent -->
<g id="node25" class="node">
<title>CsrCloserDetailComponent</title>
<polygon fill="#ffffb3" stroke="#000000" points="2534.5294,-122 2363.4706,-122 2363.4706,-86 2534.5294,-86 2534.5294,-122"/>
<text text-anchor="middle" x="2449" y="-99.8" font-family="Times,serif" font-size="14.00" fill="#000000">CsrCloserDetailComponent</text>
</g>
<!-- CsrCloserDetailComponent&#45;&gt;LeadsModule -->
<g id="edge24" class="edge">
<title>CsrCloserDetailComponent&#45;&gt;LeadsModule</title>
<path fill="none" stroke="#000000" d="M2386.8619,-122.0109C2386.8619,-122.0109 2386.8619,-151.855 2386.8619,-151.855"/>
<polygon fill="#000000" stroke="#000000" points="2383.3619,-151.8549 2386.8619,-161.855 2390.3619,-151.855 2383.3619,-151.8549"/>
</g>
<!-- CsrSellerComponent -->
<g id="node26" class="node">
<title>CsrSellerComponent</title>
<polygon fill="#ffffb3" stroke="#000000" points="2345.9285,-122 2212.0715,-122 2212.0715,-86 2345.9285,-86 2345.9285,-122"/>
<text text-anchor="middle" x="2279" y="-99.8" font-family="Times,serif" font-size="14.00" fill="#000000">CsrSellerComponent</text>
</g>
<!-- CsrSellerComponent&#45;&gt;LeadsModule -->
<g id="edge25" class="edge">
<title>CsrSellerComponent&#45;&gt;LeadsModule</title>
<path fill="none" stroke="#000000" d="M2331.6129,-122.0109C2331.6129,-122.0109 2331.6129,-151.855 2331.6129,-151.855"/>
<polygon fill="#000000" stroke="#000000" points="2328.113,-151.8549 2331.6129,-161.855 2335.113,-151.855 2328.113,-151.8549"/>
</g>
<!-- DataCollectorComponent -->
<g id="node27" class="node">
<title>DataCollectorComponent</title>
<polygon fill="#ffffb3" stroke="#000000" points="2193.8571,-122 2034.1429,-122 2034.1429,-86 2193.8571,-86 2193.8571,-122"/>
<text text-anchor="middle" x="2114" y="-99.8" font-family="Times,serif" font-size="14.00" fill="#000000">DataCollectorComponent</text>
</g>
<!-- DataCollectorComponent&#45;&gt;LeadsModule -->
<g id="edge26" class="edge">
<title>DataCollectorComponent&#45;&gt;LeadsModule</title>
<path fill="none" stroke="#000000" d="M2114,-122.0348C2114,-141.5762 2114,-170 2114,-170 2114,-170 2307.2702,-170 2307.2702,-170"/>
<polygon fill="#000000" stroke="#000000" points="2307.2702,-173.5001 2317.2702,-170 2307.2701,-166.5001 2307.2702,-173.5001"/>
</g>
<!-- InhouseBrokerComponent -->
<g id="node28" class="node">
<title>InhouseBrokerComponent</title>
<polygon fill="#ffffb3" stroke="#000000" points="2016.0253,-122 1851.9747,-122 1851.9747,-86 2016.0253,-86 2016.0253,-122"/>
<text text-anchor="middle" x="1934" y="-99.8" font-family="Times,serif" font-size="14.00" fill="#000000">InhouseBrokerComponent</text>
</g>
<!-- InhouseBrokerComponent&#45;&gt;LeadsModule -->
<g id="edge27" class="edge">
<title>InhouseBrokerComponent&#45;&gt;LeadsModule</title>
<path fill="none" stroke="#000000" d="M1934,-122.0449C1934,-143.6623 1934,-177 1934,-177 1934,-177 2307.1639,-177 2307.1639,-177"/>
<polygon fill="#000000" stroke="#000000" points="2307.1639,-180.5001 2317.1639,-177 2307.1639,-173.5001 2307.1639,-180.5001"/>
</g>
<!-- InhouseBrokerDetailComponent -->
<g id="node29" class="node">
<title>InhouseBrokerDetailComponent</title>
<polygon fill="#ffffb3" stroke="#000000" points="1833.2324,-122 1634.7676,-122 1634.7676,-86 1833.2324,-86 1833.2324,-122"/>
<text text-anchor="middle" x="1734" y="-99.8" font-family="Times,serif" font-size="14.00" fill="#000000">InhouseBrokerDetailComponent</text>
</g>
<!-- InhouseBrokerDetailComponent&#45;&gt;LeadsModule -->
<g id="edge28" class="edge">
<title>InhouseBrokerDetailComponent&#45;&gt;LeadsModule</title>
<path fill="none" stroke="#000000" d="M1734,-122.1532C1734,-145.7566 1734,-184 1734,-184 1734,-184 2307.4187,-184 2307.4187,-184"/>
<polygon fill="#000000" stroke="#000000" points="2307.4188,-187.5001 2317.4187,-184 2307.4187,-180.5001 2307.4188,-187.5001"/>
</g>
<!-- LeadsComponent -->
<g id="node30" class="node">
<title>LeadsComponent</title>
<polygon fill="#ffffb3" stroke="#000000" points="1616.2591,-122 1501.7409,-122 1501.7409,-86 1616.2591,-86 1616.2591,-122"/>
<text text-anchor="middle" x="1559" y="-99.8" font-family="Times,serif" font-size="14.00" fill="#000000">LeadsComponent</text>
</g>
<!-- LeadsComponent&#45;&gt;LeadsModule -->
<g id="edge29" class="edge">
<title>LeadsComponent&#45;&gt;LeadsModule</title>
<path fill="none" stroke="#000000" d="M1559,-122.0265C1559,-147.5093 1559,-191 1559,-191 1559,-191 2307.2403,-191 2307.2403,-191"/>
<polygon fill="#000000" stroke="#000000" points="2307.2403,-194.5001 2317.2403,-191 2307.2403,-187.5001 2307.2403,-194.5001"/>
</g>
<!-- AddProjectComponent -->
<g id="node32" class="node">
<title>AddProjectComponent</title>
<polygon fill="#ffffb3" stroke="#000000" points="3484.5926,-122 3339.4074,-122 3339.4074,-86 3484.5926,-86 3484.5926,-122"/>
<text text-anchor="middle" x="3412" y="-99.8" font-family="Times,serif" font-size="14.00" fill="#000000">AddProjectComponent</text>
</g>
<!-- ProjectsModule -->
<g id="node34" class="node">
<title>ProjectsModule</title>
<polygon fill="#8dd3c7" stroke="#000000" points="3387.1486,-198 3384.1486,-202 3363.1486,-202 3360.1486,-198 3282.8514,-198 3282.8514,-162 3387.1486,-162 3387.1486,-198"/>
<text text-anchor="middle" x="3335" y="-175.8" font-family="Times,serif" font-size="14.00" fill="#000000">ProjectsModule</text>
</g>
<!-- AddProjectComponent&#45;&gt;ProjectsModule -->
<g id="edge30" class="edge">
<title>AddProjectComponent&#45;&gt;ProjectsModule</title>
<path fill="none" stroke="#000000" d="M3363.3889,-122.0109C3363.3889,-122.0109 3363.3889,-151.855 3363.3889,-151.855"/>
<polygon fill="#000000" stroke="#000000" points="3359.8889,-151.8549 3363.3889,-161.855 3366.8889,-151.855 3359.8889,-151.8549"/>
</g>
<!-- ProjectsComponent -->
<g id="node33" class="node">
<title>ProjectsComponent</title>
<polygon fill="#ffffb3" stroke="#000000" points="3321.4313,-122 3194.5687,-122 3194.5687,-86 3321.4313,-86 3321.4313,-122"/>
<text text-anchor="middle" x="3258" y="-99.8" font-family="Times,serif" font-size="14.00" fill="#000000">ProjectsComponent</text>
</g>
<!-- ProjectsComponent&#45;&gt;ProjectsModule -->
<g id="edge31" class="edge">
<title>ProjectsComponent&#45;&gt;ProjectsModule</title>
<path fill="none" stroke="#000000" d="M3301.9456,-122.0109C3301.9456,-122.0109 3301.9456,-151.855 3301.9456,-151.855"/>
<polygon fill="#000000" stroke="#000000" points="3298.4457,-151.8549 3301.9456,-161.855 3305.4457,-151.855 3298.4457,-151.8549"/>
</g>
<!-- AddPropertyComponent -->
<g id="node35" class="node">
<title>AddPropertyComponent</title>
<polygon fill="#ffffb3" stroke="#000000" points="3834.6484,-122 3681.3516,-122 3681.3516,-86 3834.6484,-86 3834.6484,-122"/>
<text text-anchor="middle" x="3758" y="-99.8" font-family="Times,serif" font-size="14.00" fill="#000000">AddPropertyComponent</text>
</g>
<!-- PropertiesModule -->
<g id="node37" class="node">
<title>PropertiesModule</title>
<polygon fill="#8dd3c7" stroke="#000000" points="3734.309,-198 3731.309,-202 3710.309,-202 3707.309,-198 3617.691,-198 3617.691,-162 3734.309,-162 3734.309,-198"/>
<text text-anchor="middle" x="3676" y="-175.8" font-family="Times,serif" font-size="14.00" fill="#000000">PropertiesModule</text>
</g>
<!-- AddPropertyComponent&#45;&gt;PropertiesModule -->
<g id="edge32" class="edge">
<title>AddPropertyComponent&#45;&gt;PropertiesModule</title>
<path fill="none" stroke="#000000" d="M3707.6652,-122.0109C3707.6652,-122.0109 3707.6652,-151.855 3707.6652,-151.855"/>
<polygon fill="#000000" stroke="#000000" points="3704.1652,-151.8549 3707.6652,-161.855 3711.1652,-151.855 3704.1652,-151.8549"/>
</g>
<!-- PropertiesComponent -->
<g id="node36" class="node">
<title>PropertiesComponent</title>
<polygon fill="#ffffb3" stroke="#000000" points="3663.0912,-122 3524.9088,-122 3524.9088,-86 3663.0912,-86 3663.0912,-122"/>
<text text-anchor="middle" x="3594" y="-99.8" font-family="Times,serif" font-size="14.00" fill="#000000">PropertiesComponent</text>
</g>
<!-- PropertiesComponent&#45;&gt;PropertiesModule -->
<g id="edge33" class="edge">
<title>PropertiesComponent&#45;&gt;PropertiesModule</title>
<path fill="none" stroke="#000000" d="M3640.4457,-122.0109C3640.4457,-122.0109 3640.4457,-151.855 3640.4457,-151.855"/>
<polygon fill="#000000" stroke="#000000" points="3636.9457,-151.8549 3640.4457,-161.855 3643.9457,-151.855 3636.9457,-151.8549"/>
</g>
<!-- EditProfileComponent -->
<g id="node38" class="node">
<title>EditProfileComponent</title>
<polygon fill="#ffffb3" stroke="#000000" points="4743.266,-122 4600.734,-122 4600.734,-86 4743.266,-86 4743.266,-122"/>
<text text-anchor="middle" x="4672" y="-99.8" font-family="Times,serif" font-size="14.00" fill="#000000">EditProfileComponent</text>
</g>
<!-- SettingsModule -->
<g id="node44" class="node">
<title>SettingsModule</title>
<polygon fill="#8dd3c7" stroke="#000000" points="4351.1639,-198 4348.1639,-202 4327.1639,-202 4324.1639,-198 4246.8361,-198 4246.8361,-162 4351.1639,-162 4351.1639,-198"/>
<text text-anchor="middle" x="4299" y="-175.8" font-family="Times,serif" font-size="14.00" fill="#000000">SettingsModule</text>
</g>
<!-- EditProfileComponent&#45;&gt;SettingsModule -->
<g id="edge34" class="edge">
<title>EditProfileComponent&#45;&gt;SettingsModule</title>
<path fill="none" stroke="#000000" d="M4672,-122.1985C4672,-146.3563 4672,-186 4672,-186 4672,-186 4361.2568,-186 4361.2568,-186"/>
<polygon fill="#000000" stroke="#000000" points="4361.2568,-182.5001 4351.2568,-186 4361.2568,-189.5001 4361.2568,-182.5001"/>
</g>
<!-- LocalityComponent -->
<g id="node39" class="node">
<title>LocalityComponent</title>
<polygon fill="#ffffb3" stroke="#000000" points="4582.986,-122 4455.014,-122 4455.014,-86 4582.986,-86 4582.986,-122"/>
<text text-anchor="middle" x="4519" y="-99.8" font-family="Times,serif" font-size="14.00" fill="#000000">LocalityComponent</text>
</g>
<!-- LocalityComponent&#45;&gt;SettingsModule -->
<g id="edge35" class="edge">
<title>LocalityComponent&#45;&gt;SettingsModule</title>
<path fill="none" stroke="#000000" d="M4519,-122.0267C4519,-142.7672 4519,-174 4519,-174 4519,-174 4361.416,-174 4361.416,-174"/>
<polygon fill="#000000" stroke="#000000" points="4361.416,-170.5001 4351.416,-174 4361.4159,-177.5001 4361.416,-170.5001"/>
</g>
<!-- LocationComponent -->
<g id="node40" class="node">
<title>LocationComponent</title>
<polygon fill="#ffffb3" stroke="#000000" points="4436.5954,-122 4305.4046,-122 4305.4046,-86 4436.5954,-86 4436.5954,-122"/>
<text text-anchor="middle" x="4371" y="-99.8" font-family="Times,serif" font-size="14.00" fill="#000000">LocationComponent</text>
</g>
<!-- LocationComponent&#45;&gt;SettingsModule -->
<g id="edge36" class="edge">
<title>LocationComponent&#45;&gt;SettingsModule</title>
<path fill="none" stroke="#000000" d="M4328.392,-122.0109C4328.392,-122.0109 4328.392,-151.855 4328.392,-151.855"/>
<polygon fill="#000000" stroke="#000000" points="4324.8921,-151.8549 4328.392,-161.855 4331.8921,-151.855 4324.8921,-151.8549"/>
</g>
<!-- ProjectComponent -->
<g id="node41" class="node">
<title>ProjectComponent</title>
<polygon fill="#ffffb3" stroke="#000000" points="4287.486,-122 4166.514,-122 4166.514,-86 4287.486,-86 4287.486,-122"/>
<text text-anchor="middle" x="4227" y="-99.8" font-family="Times,serif" font-size="14.00" fill="#000000">ProjectComponent</text>
</g>
<!-- ProjectComponent&#45;&gt;SettingsModule -->
<g id="edge37" class="edge">
<title>ProjectComponent&#45;&gt;SettingsModule</title>
<path fill="none" stroke="#000000" d="M4267.0807,-122.0109C4267.0807,-122.0109 4267.0807,-151.855 4267.0807,-151.855"/>
<polygon fill="#000000" stroke="#000000" points="4263.5807,-151.8549 4267.0807,-161.855 4270.5807,-151.855 4263.5807,-151.8549"/>
</g>
<!-- PropertyComponent -->
<g id="node42" class="node">
<title>PropertyComponent</title>
<polygon fill="#ffffb3" stroke="#000000" points="4148.5422,-122 4019.4578,-122 4019.4578,-86 4148.5422,-86 4148.5422,-122"/>
<text text-anchor="middle" x="4084" y="-99.8" font-family="Times,serif" font-size="14.00" fill="#000000">PropertyComponent</text>
</g>
<!-- PropertyComponent&#45;&gt;SettingsModule -->
<g id="edge38" class="edge">
<title>PropertyComponent&#45;&gt;SettingsModule</title>
<path fill="none" stroke="#000000" d="M4084,-122.0267C4084,-142.7672 4084,-174 4084,-174 4084,-174 4236.68,-174 4236.68,-174"/>
<polygon fill="#000000" stroke="#000000" points="4236.68,-177.5001 4246.68,-174 4236.68,-170.5001 4236.68,-177.5001"/>
</g>
<!-- SettingsComponent -->
<g id="node43" class="node">
<title>SettingsComponent</title>
<polygon fill="#ffffb3" stroke="#000000" points="4001.4468,-122 3874.5532,-122 3874.5532,-86 4001.4468,-86 4001.4468,-122"/>
<text text-anchor="middle" x="3938" y="-99.8" font-family="Times,serif" font-size="14.00" fill="#000000">SettingsComponent</text>
</g>
<!-- SettingsComponent&#45;&gt;SettingsModule -->
<g id="edge39" class="edge">
<title>SettingsComponent&#45;&gt;SettingsModule</title>
<path fill="none" stroke="#000000" d="M3938,-122.1985C3938,-146.3563 3938,-186 3938,-186 3938,-186 4236.5075,-186 4236.5075,-186"/>
<polygon fill="#000000" stroke="#000000" points="4236.5075,-189.5001 4246.5075,-186 4236.5075,-182.5001 4236.5075,-189.5001"/>
</g>
<!-- UsersComponent -->
<g id="node45" class="node">
<title>UsersComponent</title>
<polygon fill="#ffffb3" stroke="#000000" points="4926.7036,-198 4813.2964,-198 4813.2964,-162 4926.7036,-162 4926.7036,-198"/>
<text text-anchor="middle" x="4870" y="-175.8" font-family="Times,serif" font-size="14.00" fill="#000000">UsersComponent</text>
</g>
<!-- UsersModule -->
<g id="node46" class="node">
<title>UsersModule</title>
<polygon fill="#8dd3c7" stroke="#000000" points="4915.9218,-263 4912.9218,-267 4891.9218,-267 4888.9218,-263 4824.0782,-263 4824.0782,-227 4915.9218,-227 4915.9218,-263"/>
<text text-anchor="middle" x="4870" y="-240.8" font-family="Times,serif" font-size="14.00" fill="#000000">UsersModule</text>
</g>
<!-- UsersComponent&#45;&gt;UsersModule -->
<g id="edge40" class="edge">
<title>UsersComponent&#45;&gt;UsersModule</title>
<path fill="none" stroke="#000000" d="M4870,-198.1061C4870,-198.1061 4870,-216.991 4870,-216.991"/>
<polygon fill="#000000" stroke="#000000" points="4866.5001,-216.9909 4870,-226.991 4873.5001,-216.991 4866.5001,-216.9909"/>
</g>
<!-- Users -->
<g id="node47" class="node">
<title>Users</title>
<ellipse fill="#fdb462" stroke="#000000" cx="4924" cy="-104" rx="33.0411" ry="18"/>
<text text-anchor="middle" x="4924" y="-99.8" font-family="Times,serif" font-size="14.00" fill="#000000">Users</text>
</g>
<!-- Users&#45;&gt;UsersComponent -->
<g id="edge41" class="edge">
<title>Users&#45;&gt;UsersComponent</title>
<path fill="none" stroke="#000000" d="M4908.7906,-120.1176C4908.7906,-120.1176 4908.7906,-151.7719 4908.7906,-151.7719"/>
<polygon fill="#000000" stroke="#000000" points="4905.2907,-151.7719 4908.7906,-161.7719 4912.2907,-151.772 4905.2907,-151.7719"/>
</g>
<!-- Constant -->
<g id="node48" class="node">
<title>Constant</title>
<ellipse fill="#fdb462" stroke="#000000" cx="4828" cy="-104" rx="45.2439" ry="18"/>
<text text-anchor="middle" x="4828" y="-99.8" font-family="Times,serif" font-size="14.00" fill="#000000">Constant</text>
</g>
<!-- Constant&#45;&gt;UsersComponent -->
<g id="edge42" class="edge">
<title>Constant&#45;&gt;UsersComponent</title>
<path fill="none" stroke="#000000" d="M4843.385,-121.2456C4843.385,-121.2456 4843.385,-151.7629 4843.385,-151.7629"/>
<polygon fill="#000000" stroke="#000000" points="4839.8851,-151.7628 4843.385,-161.7629 4846.8851,-151.7629 4839.8851,-151.7628"/>
</g>
</g>
</svg>
